<svg xmlns="http://www.w3.org/2000/svg" xmlns:xlink="http://www.w3.org/1999/xlink" id="processonSvg1000" viewBox="-4.770847320556641 46.18750762939453 2288.7897872924805 2123.994140625" width="2288.7897872924805" height="2123.994140625"><defs id="ProcessOnDefs1001"><marker id="ProcessOnMarker1053" markerUnits="userSpaceOnUse" orient="auto" markerWidth="20.47213595499958" markerHeight="13.303600391474445" viewBox="-2.0 -2.752763840942347 20.47213595499958 13.303600391474445" refX="18.47213595499958" refY="3.8990363547948754"><path id="ProcessOnPath1054" d="M12.0 3.8990363547948754L0.0 7.798072709589751V0.0Z" stroke="#323232" stroke-width="4.0" fill="#323232" transform="matrix(-1.0,1.2246467991473532E-16,-1.2246467991473532E-16,-1.0,16.47213595499958,7.79807270958975)"/></marker><marker id="ProcessOnMarker1225" markerUnits="userSpaceOnUse" orient="auto" markerWidth="20.47213595499958" markerHeight="13.303600391474445" viewBox="-2.0 -2.752763840942347 20.47213595499958 13.303600391474445" refX="18.47213595499958" refY="3.8990363547948754"><path id="ProcessOnPath1226" d="M12.0 3.8990363547948754L0.0 7.798072709589751V0.0Z" stroke="#323232" stroke-width="4.0" fill="#323232" transform="matrix(-1.0,1.2246467991473532E-16,-1.2246467991473532E-16,-1.0,16.47213595499958,7.79807270958975)"/></marker><marker id="ProcessOnMarker1233" markerUnits="userSpaceOnUse" orient="auto" markerWidth="20.47213595499958" markerHeight="13.303600391474445" viewBox="-2.0 -2.752763840942347 20.47213595499958 13.303600391474445" refX="18.47213595499958" refY="3.8990363547948754"><path id="ProcessOnPath1234" d="M12.0 3.8990363547948754L0.0 7.798072709589751V0.0Z" stroke="#323232" stroke-width="4.0" fill="#323232" transform="matrix(-1.0,1.2246467991473532E-16,-1.2246467991473532E-16,-1.0,16.47213595499958,7.79807270958975)"/></marker></defs><g id="ProcessOnG1002"><path id="ProcessOnPath1003" d="M-4.770847320556641 46.18750762939453H2284.018939971924V2170.1816482543945H-4.770847320556641V46.18750762939453Z" fill="#ffffff"/><g id="ProcessOnG1004"><g id="ProcessOnG1005" transform="matrix(1.0,0.0,0.0,1.0,1520.6080169677734,298.4609146118164)" opacity="1.0"><path id="ProcessOnPath1006" d="M0.0 0.0L130.50142669677734 0.0L130.50142669677734 35.64842224121094L0.0 35.64842224121094Z" stroke="#323232" stroke-width="2.0" stroke-dasharray="none" opacity="1.0" fill="#ffffff"/><g id="ProcessOnG1007" transform="matrix(1.0,0.0,0.0,1.0,10.0,9.699211120605469)"><text id="ProcessOnText1008" fill="#000000" font-size="13" x="54.25071334838867" y="13.325" font-family="微软雅黑" font-weight="normal" font-style="normal" text-decoration="none" family="微软雅黑" text-anchor="middle" size="13">TrainStation</text></g></g><g id="ProcessOnG1009" transform="matrix(1.0,0.0,0.0,1.0,611.498420715332,206.5390853881836)" opacity="1.0"><path id="ProcessOnPath1010" d="M0.0 17.82421112060547C0.0 -5.941403706868489 130.50443267822266 -5.941403706868489 130.50443267822266 17.82421112060547C130.50443267822266 41.58982594807943 0.0 41.58982594807943 0.0 17.82421112060547Z" stroke="#323232" stroke-width="2.0" stroke-dasharray="none" opacity="1.0" fill="#ffffff"/><g id="ProcessOnG1011" transform="matrix(1.0,0.0,0.0,1.0,10.0,9.699211120605469)"><text id="ProcessOnText1012" fill="#000000" font-size="13" x="54.25221633911133" y="13.325" font-family="微软雅黑" font-weight="normal" font-style="normal" text-decoration="none" family="微软雅黑" text-anchor="middle" size="13">Price(YZ)</text></g></g><g id="ProcessOnG1013"><path id="ProcessOnPath1014" d="M742.0028533935547 224.36329650878906L1520.6080169677734 316.2851257324219" stroke="#323232" stroke-width="2.0" stroke-dasharray="none" fill="none"/></g><g id="ProcessOnG1015"><path id="ProcessOnPath1016" d="M742.0028533935547 129.68750762939453L1520.6080169677734 316.2851257324219" stroke="#323232" stroke-width="2.0" stroke-dasharray="none" fill="none"/></g><g id="ProcessOnG1017"><path id="ProcessOnPath1018" d="M1520.6080169677734 316.2851257324219L742.498420715332 384.88033294677734" stroke="#323232" stroke-width="2.0" stroke-dasharray="none" fill="none"/></g><g id="ProcessOnG1019"><path id="ProcessOnPath1020" d="M742.0028533935547 328.36329650878906L1520.6080169677734 316.2851257324219" stroke="#323232" stroke-width="2.0" stroke-dasharray="none" fill="none"/></g><g id="ProcessOnG1021"><path id="ProcessOnPath1022" d="M742.498420715332 275.5508041381836L1520.6080169677734 316.2851257324219" stroke="#323232" stroke-width="2.0" stroke-dasharray="none" fill="none"/></g><g id="ProcessOnG1023"><path id="ProcessOnPath1024" d="M742.0028533935547 177.01171875L1520.6080169677734 316.2851257324219" stroke="#323232" stroke-width="2.0" stroke-dasharray="none" fill="none"/></g><g id="ProcessOnG1025"><path id="ProcessOnPath1026" d="M742.0028533935547 84.01171875L1520.6080169677734 316.2851257324219" stroke="#323232" stroke-width="2.0" stroke-dasharray="none" fill="none"/></g><g id="ProcessOnG1027"><path id="ProcessOnPath1028" d="M1018.2477836608887 1819.6875076293945L798.9635028839111 1946.005859375" stroke="#323232" stroke-width="2.0" stroke-dasharray="none" fill="none"/></g><g id="ProcessOnG1029"><path id="ProcessOnPath1030" d="M1016.5 1868.5L798.9635028839111 1946.005859375" stroke="#323232" stroke-width="2.0" stroke-dasharray="none" fill="none"/></g><g id="ProcessOnG1031"><path id="ProcessOnPath1032" d="M1018.8882281550555 2084.647935509017L798.9635028839111 1946.005859375" stroke="#323232" stroke-width="2.0" stroke-dasharray="none" fill="none"/></g><g id="ProcessOnG1033"><path id="ProcessOnPath1034" d="M798.9635028839111 1946.005859375L1018.2477836608887 2000.7090148925781" stroke="#323232" stroke-width="2.0" stroke-dasharray="none" fill="none"/></g><g id="ProcessOnG1035"><path id="ProcessOnPath1036" d="M1016.5 1910.357437133789L798.9635028839111 1946.005859375" stroke="#323232" stroke-width="2.0" stroke-dasharray="none" fill="none"/></g><g id="ProcessOnG1037"><path id="ProcessOnPath1038" d="M798.9635028839111 1946.005859375L1018.2477836608887 1770.0390853881836" stroke="#323232" stroke-width="2.0" stroke-dasharray="none" fill="none"/></g><g id="ProcessOnG1039"><path id="ProcessOnPath1040" d="M798.9635028839111 1946.005859375L1016.5 2043.7090148925781" stroke="#323232" stroke-width="2.0" stroke-dasharray="none" fill="none"/></g><g id="ProcessOnG1041"><path id="ProcessOnPath1042" d="M798.9635028839111 1946.005859375L1016.5 1956.4121704101562" stroke="#323232" stroke-width="2.0" stroke-dasharray="none" fill="none"/></g><g id="ProcessOnG1043"><path id="ProcessOnPath1044" d="M235.4842987060547 2009.97855758667L151.73358535766602 1833.363296508789" stroke="#323232" stroke-width="2.0" stroke-dasharray="none" fill="none"/></g><g id="ProcessOnG1045"><path id="ProcessOnPath1046" d="M151.73358535766602 1878.363296508789L235.4842987060547 2009.97855758667" stroke="#323232" stroke-width="2.0" stroke-dasharray="none" fill="none"/></g><g id="ProcessOnG1047" transform="matrix(1.0,0.0,0.0,1.0,1274.736915588379,1075.779426574707)" opacity="1.0"><path id="ProcessOnPath1048" d="M0.0 0.0L202.9719295501709 0.0L202.9719295501709 39.681488037109375L0.0 39.681488037109375Z" stroke="#323232" stroke-width="2.0" stroke-dasharray="none" opacity="1.0" fill="#ffffff"/><g id="ProcessOnG1049" transform="matrix(1.0,0.0,0.0,1.0,10.0,11.715744018554688)"><text id="ProcessOnText1050" fill="#000000" font-size="13" x="90.48596477508545" y="13.325" font-family="微软雅黑" font-weight="normal" font-style="normal" text-decoration="none" family="微软雅黑" text-anchor="middle" size="13">Available Seat</text></g></g><g id="ProcessOnG1051"><path id="ProcessOnPath1052" d="M424.88055188069376 2009.97855758667L365.98572540283203 2009.97855758667" stroke="#323232" stroke-width="4.0" stroke-dasharray="none" fill="none" marker-start="url(#ProcessOnMarker1053)"/></g><g id="ProcessOnG1055"><path id="ProcessOnPath1056" d="M798.9635028839111 1946.005859375L1017.5880948797137 2128.720733642578" stroke="#323232" stroke-width="2.0" stroke-dasharray="none" fill="none"/></g><g id="ProcessOnG1057" transform="matrix(1.0,0.0,0.0,1.0,1130.3510456085205,1299.3332748413086)" opacity="1.0"><path id="ProcessOnPath1058" d="M0.0 0.0L106.52554321289062 0.0L106.52554321289062 44.01171875L0.0 44.01171875Z" stroke="#323232" stroke-width="2.0" stroke-dasharray="none" opacity="1.0" fill="#ffffff"/><g id="ProcessOnG1059" transform="matrix(1.0,0.0,0.0,1.0,10.0,13.880859375)"><text id="ProcessOnText1060" fill="#000000" font-size="13" x="42.26277160644531" y="13.325" font-family="微软雅黑" font-weight="normal" font-style="normal" text-decoration="none" family="微软雅黑" text-anchor="middle" size="13">TrainList</text></g></g><g id="ProcessOnG1061" transform="matrix(1.0,0.0,0.0,1.0,825.4935722351074,1460.345718383789)" opacity="1.0"><path id="ProcessOnPath1062" d="M0.0 15.505859375C0.0 -5.168619791666667 100.99714660644531 -5.168619791666667 100.99714660644531 15.505859375C100.99714660644531 36.180338541666664 0.0 36.180338541666664 0.0 15.505859375Z" stroke="#323232" stroke-width="2.0" stroke-dasharray="none" opacity="1.0" fill="#ffffff"/><g id="ProcessOnG1063" transform="matrix(1.0,0.0,0.0,1.0,10.0,7.380859375)"><text id="ProcessOnText1064" fill="#000000" font-size="13" x="39.498573303222656" y="13.325" font-family="微软雅黑" font-weight="normal" font-style="normal" text-decoration="none" family="微软雅黑" text-anchor="middle" size="13">YWSEn</text></g></g><g id="ProcessOnG1065" transform="matrix(1.0,0.0,0.0,1.0,825.4935722351074,1183.6699295043945)" opacity="1.0"><path id="ProcessOnPath1066" d="M0.0 15.505859375C0.0 -5.168619791666667 100.99714660644531 -5.168619791666667 100.99714660644531 15.505859375C100.99714660644531 36.180338541666664 0.0 36.180338541666664 0.0 15.505859375Z" stroke="#323232" stroke-width="2.0" stroke-dasharray="none" opacity="1.0" fill="#ffffff"/><g id="ProcessOnG1067" transform="matrix(1.0,0.0,0.0,1.0,10.0,7.380859375)"><text id="ProcessOnText1068" fill="#000000" font-size="13" x="39.498573303222656" y="13.325" font-family="微软雅黑" font-weight="normal" font-style="normal" text-decoration="none" family="微软雅黑" text-anchor="middle" size="13">YWZEn</text></g></g><g id="ProcessOnG1069" transform="matrix(1.0,0.0,0.0,1.0,825.4935722351074,1233.339859008789)" opacity="1.0"><path id="ProcessOnPath1070" d="M0.0 15.505859375C0.0 -5.168619791666667 100.99714660644531 -5.168619791666667 100.99714660644531 15.505859375C100.99714660644531 36.180338541666664 0.0 36.180338541666664 0.0 15.505859375Z" stroke="#323232" stroke-width="2.0" stroke-dasharray="none" opacity="1.0" fill="#ffffff"/><g id="ProcessOnG1071" transform="matrix(1.0,0.0,0.0,1.0,10.0,7.380859375)"><text id="ProcessOnText1072" fill="#000000" font-size="13" x="39.498573303222656" y="13.325" font-family="微软雅黑" font-weight="normal" font-style="normal" text-decoration="none" family="微软雅黑" text-anchor="middle" size="13">YWXEn</text></g></g><g id="ProcessOnG1073" transform="matrix(1.0,0.0,0.0,1.0,829.4935722351074,1279.339859008789)" opacity="1.0"><path id="ProcessOnPath1074" d="M0.0 15.505859375C0.0 -5.168619791666667 100.99714660644531 -5.168619791666667 100.99714660644531 15.505859375C100.99714660644531 36.180338541666664 0.0 36.180338541666664 0.0 15.505859375Z" stroke="#323232" stroke-width="2.0" stroke-dasharray="none" opacity="1.0" fill="#ffffff"/><g id="ProcessOnG1075" transform="matrix(1.0,0.0,0.0,1.0,10.0,7.380859375)"><text id="ProcessOnText1076" fill="#000000" font-size="13" x="39.498573303222656" y="13.325" font-family="微软雅黑" font-weight="normal" font-style="normal" text-decoration="none" family="微软雅黑" text-anchor="middle" size="13">RWSEn</text></g></g><g id="ProcessOnG1077" transform="matrix(1.0,0.0,0.0,1.0,825.4935722351074,1326.339859008789)" opacity="1.0"><path id="ProcessOnPath1078" d="M0.0 15.505859375C0.0 -5.168619791666667 100.99714660644531 -5.168619791666667 100.99714660644531 15.505859375C100.99714660644531 36.180338541666664 0.0 36.180338541666664 0.0 15.505859375Z" stroke="#323232" stroke-width="2.0" stroke-dasharray="none" opacity="1.0" fill="#ffffff"/><g id="ProcessOnG1079" transform="matrix(1.0,0.0,0.0,1.0,10.0,7.380859375)"><text id="ProcessOnText1080" fill="#000000" font-size="13" x="39.498573303222656" y="13.325" font-family="微软雅黑" font-weight="normal" font-style="normal" text-decoration="none" family="微软雅黑" text-anchor="middle" size="13">RWXEn</text></g></g><g id="ProcessOnG1081" transform="matrix(1.0,0.0,0.0,1.0,825.4935722351074,1377.339859008789)" opacity="1.0"><path id="ProcessOnPath1082" d="M0.0 15.505859375C0.0 -5.168619791666667 100.99714660644531 -5.168619791666667 100.99714660644531 15.505859375C100.99714660644531 36.180338541666664 0.0 36.180338541666664 0.0 15.505859375Z" stroke="#323232" stroke-width="2.0" stroke-dasharray="none" opacity="1.0" fill="#ffffff"/><g id="ProcessOnG1083" transform="matrix(1.0,0.0,0.0,1.0,10.0,7.380859375)"><text id="ProcessOnText1084" fill="#000000" font-size="13" x="39.498573303222656" y="13.325" font-family="微软雅黑" font-weight="normal" font-style="normal" text-decoration="none" family="微软雅黑" text-anchor="middle" size="13">YZEn</text></g></g><g id="ProcessOnG1085" transform="matrix(1.0,0.0,0.0,1.0,825.4935722351074,1419.339859008789)" opacity="1.0"><path id="ProcessOnPath1086" d="M0.0 15.505859375C0.0 -5.168619791666667 100.99714660644531 -5.168619791666667 100.99714660644531 15.505859375C100.99714660644531 36.180338541666664 0.0 36.180338541666664 0.0 15.505859375Z" stroke="#323232" stroke-width="2.0" stroke-dasharray="none" opacity="1.0" fill="#ffffff"/><g id="ProcessOnG1087" transform="matrix(1.0,0.0,0.0,1.0,10.0,7.380859375)"><text id="ProcessOnText1088" fill="#000000" font-size="13" x="39.498573303222656" y="13.325" font-family="微软雅黑" font-weight="normal" font-style="normal" text-decoration="none" family="微软雅黑" text-anchor="middle" size="13">RZEn</text></g></g><g id="ProcessOnG1089" transform="matrix(1.0,0.0,0.0,1.0,825.4935722351074,1141.7792663574219)" opacity="1.0"><path id="ProcessOnPath1090" d="M0.0 15.505859375C0.0 -5.168619791666667 100.99714660644531 -5.168619791666667 100.99714660644531 15.505859375C100.99714660644531 36.180338541666664 0.0 36.180338541666664 0.0 15.505859375Z" stroke="#323232" stroke-width="2.0" stroke-dasharray="none" opacity="1.0" fill="#ffffff"/><g id="ProcessOnG1091" transform="matrix(1.0,0.0,0.0,1.0,10.0,7.380859375)"><text id="ProcessOnText1092" fill="#000000" font-size="13" x="39.498573303222656" y="13.325" font-family="微软雅黑" font-weight="normal" font-style="normal" text-decoration="underline" family="微软雅黑" text-anchor="middle" size="13">TrainID</text></g></g><g id="ProcessOnG1093" transform="matrix(1.0,0.0,0.0,1.0,611.498420715332,66.18750762939453)" opacity="1.0"><path id="ProcessOnPath1094" d="M0.0 17.82421112060547C0.0 -5.941403706868489 130.50443267822266 -5.941403706868489 130.50443267822266 17.82421112060547C130.50443267822266 41.58982594807943 0.0 41.58982594807943 0.0 17.82421112060547Z" stroke="#323232" stroke-width="2.0" stroke-dasharray="none" opacity="1.0" fill="#ffffff"/><g id="ProcessOnG1095" transform="matrix(1.0,0.0,0.0,1.0,10.0,9.699211120605469)"><text id="ProcessOnText1096" fill="#000000" font-size="13" x="54.25221633911133" y="13.325" font-family="微软雅黑" font-weight="normal" font-style="normal" text-decoration="none" family="微软雅黑" text-anchor="middle" size="13">InnerStationID</text></g></g><g id="ProcessOnG1097" transform="matrix(1.0,0.0,0.0,1.0,611.498420715332,111.86329650878906)" opacity="1.0"><path id="ProcessOnPath1098" d="M0.0 17.82421112060547C0.0 -5.941403706868489 130.50443267822266 -5.941403706868489 130.50443267822266 17.82421112060547C130.50443267822266 41.58982594807943 0.0 41.58982594807943 0.0 17.82421112060547Z" stroke="#323232" stroke-width="2.0" stroke-dasharray="none" opacity="1.0" fill="#ffffff"/><g id="ProcessOnG1099" transform="matrix(1.0,0.0,0.0,1.0,10.0,9.699211120605469)"><text id="ProcessOnText1100" fill="#000000" font-size="13" x="54.25221633911133" y="13.325" font-family="微软雅黑" font-weight="normal" font-style="normal" text-decoration="underline" family="微软雅黑" text-anchor="middle" size="13">TrainID</text></g></g><g id="ProcessOnG1101" transform="matrix(1.0,0.0,0.0,1.0,611.498420715332,159.18750762939453)" opacity="1.0"><path id="ProcessOnPath1102" d="M0.0 17.82421112060547C0.0 -5.941403706868489 130.50443267822266 -5.941403706868489 130.50443267822266 17.82421112060547C130.50443267822266 41.58982594807943 0.0 41.58982594807943 0.0 17.82421112060547Z" stroke="#323232" stroke-width="2.0" stroke-dasharray="none" opacity="1.0" fill="#ffffff"/><g id="ProcessOnG1103" transform="matrix(1.0,0.0,0.0,1.0,10.0,9.699211120605469)"><text id="ProcessOnText1104" fill="#000000" font-size="13" x="54.25221633911133" y="13.325" font-family="微软雅黑" font-weight="normal" font-style="normal" text-decoration="underline" family="微软雅黑" text-anchor="middle" size="13">OuterStationID</text></g></g><g id="ProcessOnG1105" transform="matrix(1.0,0.0,0.0,1.0,611.9939880371094,257.7265930175781)" opacity="1.0"><path id="ProcessOnPath1106" d="M0.0 17.82421112060547C0.0 -5.941403706868489 130.50443267822266 -5.941403706868489 130.50443267822266 17.82421112060547C130.50443267822266 41.58982594807943 0.0 41.58982594807943 0.0 17.82421112060547Z" stroke="#323232" stroke-width="2.0" stroke-dasharray="none" opacity="1.0" fill="#ffffff"/><g id="ProcessOnG1107" transform="matrix(1.0,0.0,0.0,1.0,10.0,9.699211120605469)"><text id="ProcessOnText1108" fill="#000000" font-size="13" x="54.25221633911133" y="13.325" font-family="微软雅黑" font-weight="normal" font-style="normal" text-decoration="none" family="微软雅黑" text-anchor="middle" size="13">Mile</text></g></g><g id="ProcessOnG1109" transform="matrix(1.0,0.0,0.0,1.0,611.498420715332,310.5390853881836)" opacity="1.0"><path id="ProcessOnPath1110" d="M0.0 17.82421112060547C0.0 -5.941403706868489 130.50443267822266 -5.941403706868489 130.50443267822266 17.82421112060547C130.50443267822266 41.58982594807943 0.0 41.58982594807943 0.0 17.82421112060547Z" stroke="#323232" stroke-width="2.0" stroke-dasharray="none" opacity="1.0" fill="#ffffff"/><g id="ProcessOnG1111" transform="matrix(1.0,0.0,0.0,1.0,10.0,9.699211120605469)"><text id="ProcessOnText1112" fill="#000000" font-size="13" x="54.25221633911133" y="13.325" font-family="微软雅黑" font-weight="normal" font-style="normal" text-decoration="none" family="微软雅黑" text-anchor="middle" size="13">ArriveTime</text></g></g><g id="ProcessOnG1113" transform="matrix(1.0,0.0,0.0,1.0,611.9939880371094,367.0561218261719)" opacity="1.0"><path id="ProcessOnPath1114" d="M0.0 17.82421112060547C0.0 -5.941403706868489 130.50443267822266 -5.941403706868489 130.50443267822266 17.82421112060547C130.50443267822266 41.58982594807943 0.0 41.58982594807943 0.0 17.82421112060547Z" stroke="#323232" stroke-width="2.0" stroke-dasharray="none" opacity="1.0" fill="#ffffff"/><g id="ProcessOnG1115" transform="matrix(1.0,0.0,0.0,1.0,10.0,9.699211120605469)"><text id="ProcessOnText1116" fill="#000000" font-size="13" x="54.25221633911133" y="13.325" font-family="微软雅黑" font-weight="normal" font-style="normal" text-decoration="none" family="微软雅黑" text-anchor="middle" size="13">ArriveTimeMin</text></g></g><g id="ProcessOnG1117" transform="matrix(1.0,0.0,0.0,1.0,611.498420715332,502.5390853881836)" opacity="1.0"><path id="ProcessOnPath1118" d="M0.0 17.82421112060547C0.0 -5.941403706868489 130.50443267822266 -5.941403706868489 130.50443267822266 17.82421112060547C130.50443267822266 41.58982594807943 0.0 41.58982594807943 0.0 17.82421112060547Z" stroke="#323232" stroke-width="2.0" stroke-dasharray="none" opacity="1.0" fill="#ffffff"/><g id="ProcessOnG1119" transform="matrix(1.0,0.0,0.0,1.0,10.0,9.699211120605469)"><text id="ProcessOnText1120" fill="#000000" font-size="13" x="54.25221633911133" y="13.325" font-family="微软雅黑" font-weight="normal" font-style="normal" text-decoration="none" family="微软雅黑" text-anchor="middle" size="13">DeltaDay</text></g></g><g id="ProcessOnG1121" transform="matrix(1.0,0.0,0.0,1.0,611.498420715332,418.32421112060547)" opacity="1.0"><path id="ProcessOnPath1122" d="M0.0 17.82421112060547C0.0 -5.941403706868489 130.50443267822266 -5.941403706868489 130.50443267822266 17.82421112060547C130.50443267822266 41.58982594807943 0.0 41.58982594807943 0.0 17.82421112060547Z" stroke="#323232" stroke-width="2.0" stroke-dasharray="none" opacity="1.0" fill="#ffffff"/><g id="ProcessOnG1123" transform="matrix(1.0,0.0,0.0,1.0,10.0,9.699211120605469)"><text id="ProcessOnText1124" fill="#000000" font-size="13" x="54.25221633911133" y="13.325" font-family="微软雅黑" font-weight="normal" font-style="normal" text-decoration="none" family="微软雅黑" text-anchor="middle" size="13">StartTime</text></g></g><g id="ProcessOnG1125" transform="matrix(1.0,0.0,0.0,1.0,611.498420715332,461.5390853881836)" opacity="1.0"><path id="ProcessOnPath1126" d="M0.0 17.82421112060547C0.0 -5.941403706868489 130.50443267822266 -5.941403706868489 130.50443267822266 17.82421112060547C130.50443267822266 41.58982594807943 0.0 41.58982594807943 0.0 17.82421112060547Z" stroke="#323232" stroke-width="2.0" stroke-dasharray="none" opacity="1.0" fill="#ffffff"/><g id="ProcessOnG1127" transform="matrix(1.0,0.0,0.0,1.0,10.0,9.699211120605469)"><text id="ProcessOnText1128" fill="#000000" font-size="13" x="54.25221633911133" y="13.325" font-family="微软雅黑" font-weight="normal" font-style="normal" text-decoration="none" family="微软雅黑" text-anchor="middle" size="13">StartTimeMin</text></g></g><g id="ProcessOnG1129" transform="matrix(1.0,0.0,0.0,1.0,611.498420715332,562.6597213745117)" opacity="1.0"><path id="ProcessOnPath1130" d="M0.0 17.82421112060547C0.0 -5.941403706868489 130.50443267822266 -5.941403706868489 130.50443267822266 17.82421112060547C130.50443267822266 41.58982594807943 0.0 41.58982594807943 0.0 17.82421112060547Z" stroke="#323232" stroke-width="2.0" stroke-dasharray="none" opacity="1.0" fill="#ffffff"/><g id="ProcessOnG1131" transform="matrix(1.0,0.0,0.0,1.0,10.0,9.699211120605469)"><text id="ProcessOnText1132" fill="#000000" font-size="13" x="54.25221633911133" y="13.325" font-family="微软雅黑" font-weight="normal" font-style="normal" text-decoration="none" family="微软雅黑" text-anchor="middle" size="13">ForbidFlag</text></g></g><g id="ProcessOnG1133"><path id="ProcessOnPath1134" d="M1520.6080169677734 316.2851257324219L742.0028533935547 436.14842224121094" stroke="#323232" stroke-width="2.0" stroke-dasharray="none" fill="none"/></g><g id="ProcessOnG1135"><path id="ProcessOnPath1136" d="M1520.6080169677734 316.2851257324219L742.0028533935547 479.36329650878906" stroke="#323232" stroke-width="2.0" stroke-dasharray="none" fill="none"/></g><g id="ProcessOnG1137"><path id="ProcessOnPath1138" d="M1520.6080169677734 316.2851257324219L742.0028533935547 520.3632965087891" stroke="#323232" stroke-width="2.0" stroke-dasharray="none" fill="none"/></g><g id="ProcessOnG1139" transform="matrix(1.0,0.0,0.0,1.0,21.22915267944336,1815.5390853881836)" opacity="1.0"><path id="ProcessOnPath1140" d="M0.0 17.82421112060547C0.0 -5.941403706868489 130.50443267822266 -5.941403706868489 130.50443267822266 17.82421112060547C130.50443267822266 41.58982594807943 0.0 41.58982594807943 0.0 17.82421112060547Z" stroke="#323232" stroke-width="2.0" stroke-dasharray="none" opacity="1.0" fill="#ffffff"/><g id="ProcessOnG1141" transform="matrix(1.0,0.0,0.0,1.0,10.0,9.699211120605469)"><text id="ProcessOnText1142" fill="#000000" font-size="13" x="54.25221633911133" y="13.325" font-family="微软雅黑" font-weight="normal" font-style="normal" text-decoration="none" family="微软雅黑" text-anchor="middle" size="13">Realname</text></g></g><g id="ProcessOnG1143" transform="matrix(1.0,0.0,0.0,1.0,21.22915267944336,1860.5390853881836)" opacity="1.0"><path id="ProcessOnPath1144" d="M0.0 17.82421112060547C0.0 -5.941403706868489 130.50443267822266 -5.941403706868489 130.50443267822266 17.82421112060547C130.50443267822266 41.58982594807943 0.0 41.58982594807943 0.0 17.82421112060547Z" stroke="#323232" stroke-width="2.0" stroke-dasharray="none" opacity="1.0" fill="#ffffff"/><g id="ProcessOnG1145" transform="matrix(1.0,0.0,0.0,1.0,10.0,9.699211120605469)"><text id="ProcessOnText1146" fill="#000000" font-size="13" x="54.25221633911133" y="13.325" font-family="微软雅黑" font-weight="normal" font-style="normal" text-decoration="none" family="微软雅黑" text-anchor="middle" size="13">Username</text></g></g><g id="ProcessOnG1147" transform="matrix(1.0,0.0,0.0,1.0,235.4842987060547,1992.1543464660645)" opacity="1.0"><path id="ProcessOnPath1148" d="M0.0 0.0L130.50142669677734 0.0L130.50142669677734 35.64842224121094L0.0 35.64842224121094Z" stroke="#323232" stroke-width="2.0" stroke-dasharray="none" opacity="1.0" fill="#ffffff"/><g id="ProcessOnG1149" transform="matrix(1.0,0.0,0.0,1.0,10.0,9.699211120605469)"><text id="ProcessOnText1150" fill="#000000" font-size="13" x="54.25071334838867" y="13.325" font-family="微软雅黑" font-weight="normal" font-style="normal" text-decoration="none" family="微软雅黑" text-anchor="middle" size="13">Users</text></g></g><g id="ProcessOnG1151" transform="matrix(1.0,0.0,0.0,1.0,17.72915267944336,1916.6757888793945)" opacity="1.0"><path id="ProcessOnPath1152" d="M0.0 17.82421112060547C0.0 -5.941403706868489 130.50443267822266 -5.941403706868489 130.50443267822266 17.82421112060547C130.50443267822266 41.58982594807943 0.0 41.58982594807943 0.0 17.82421112060547Z" stroke="#323232" stroke-width="2.0" stroke-dasharray="none" opacity="1.0" fill="#ffffff"/><g id="ProcessOnG1153" transform="matrix(1.0,0.0,0.0,1.0,10.0,9.699211120605469)"><text id="ProcessOnText1154" fill="#000000" font-size="13" x="54.25221633911133" y="13.325" font-family="微软雅黑" font-weight="normal" font-style="normal" text-decoration="none" family="微软雅黑" text-anchor="middle" size="13">Userpwd</text></g></g><g id="ProcessOnG1155" transform="matrix(1.0,0.0,0.0,1.0,15.22915267944336,1961.6757888793945)" opacity="1.0"><path id="ProcessOnPath1156" d="M0.0 17.82421112060547C0.0 -5.941403706868489 130.50443267822266 -5.941403706868489 130.50443267822266 17.82421112060547C130.50443267822266 41.58982594807943 0.0 41.58982594807943 0.0 17.82421112060547Z" stroke="#323232" stroke-width="2.0" stroke-dasharray="none" opacity="1.0" fill="#ffffff"/><g id="ProcessOnG1157" transform="matrix(1.0,0.0,0.0,1.0,10.0,9.699211120605469)"><text id="ProcessOnText1158" fill="#000000" font-size="13" x="54.25221633911133" y="13.325" font-family="微软雅黑" font-weight="normal" font-style="normal" text-decoration="none" family="微软雅黑" text-anchor="middle" size="13">CreditCard</text></g></g><g id="ProcessOnG1159" transform="matrix(1.0,0.0,0.0,1.0,15.22915267944336,2001.6757888793945)" opacity="1.0"><path id="ProcessOnPath1160" d="M0.0 17.82421112060547C0.0 -5.941403706868489 130.50443267822266 -5.941403706868489 130.50443267822266 17.82421112060547C130.50443267822266 41.58982594807943 0.0 41.58982594807943 0.0 17.82421112060547Z" stroke="#323232" stroke-width="2.0" stroke-dasharray="none" opacity="1.0" fill="#ffffff"/><g id="ProcessOnG1161" transform="matrix(1.0,0.0,0.0,1.0,10.0,9.699211120605469)"><text id="ProcessOnText1162" fill="#000000" font-size="13" x="54.25221633911133" y="13.325" font-family="微软雅黑" font-weight="normal" font-style="normal" text-decoration="none" family="微软雅黑" text-anchor="middle" size="13">Phone</text></g></g><g id="ProcessOnG1163" transform="matrix(1.0,0.0,0.0,1.0,15.22915267944336,2047.1933670043945)" opacity="1.0"><path id="ProcessOnPath1164" d="M0.0 17.82421112060547C0.0 -5.941403706868489 130.50443267822266 -5.941403706868489 130.50443267822266 17.82421112060547C130.50443267822266 41.58982594807943 0.0 41.58982594807943 0.0 17.82421112060547Z" stroke="#323232" stroke-width="2.0" stroke-dasharray="none" opacity="1.0" fill="#ffffff"/><g id="ProcessOnG1165" transform="matrix(1.0,0.0,0.0,1.0,10.0,9.699211120605469)"><text id="ProcessOnText1166" fill="#000000" font-size="13" x="54.25221633911133" y="13.325" font-family="微软雅黑" font-weight="normal" font-style="normal" text-decoration="underline" family="微软雅黑" text-anchor="middle" size="13">UserID</text></g></g><g id="ProcessOnG1167"><path id="ProcessOnPath1168" d="M148.23358535766602 1934.5L235.4842987060547 2009.97855758667" stroke="#323232" stroke-width="2.0" stroke-dasharray="none" fill="none"/></g><g id="ProcessOnG1169"><path id="ProcessOnPath1170" d="M145.73358535766602 1979.5L235.4842987060547 2009.97855758667" stroke="#323232" stroke-width="2.0" stroke-dasharray="none" fill="none"/></g><g id="ProcessOnG1171"><path id="ProcessOnPath1172" d="M145.73358535766602 2019.5L235.4842987060547 2009.97855758667" stroke="#323232" stroke-width="2.0" stroke-dasharray="none" fill="none"/></g><g id="ProcessOnG1173"><path id="ProcessOnPath1174" d="M145.73358535766602 2065.017578125L235.4842987060547 2009.97855758667" stroke="#323232" stroke-width="2.0" stroke-dasharray="none" fill="none"/></g><g id="ProcessOnG1175"><path id="ProcessOnPath1176" d="M1520.6080169677734 316.2851257324219L742.0028533935547 580.4839324951172" stroke="#323232" stroke-width="2.0" stroke-dasharray="none" fill="none"/></g><g id="ProcessOnG1177" transform="matrix(1.0,0.0,0.0,1.0,443.35268783569336,1982.8848037719727)" opacity="1.0"><path id="ProcessOnPath1178" d="M0.0 27.093753814697266L82.01419830322266 0.0L164.0283966064453 27.093753814697266L82.01419830322266 54.18750762939453Z" stroke="#323232" stroke-width="2.0" stroke-dasharray="none" opacity="1.0" fill="#ffffff"/><g id="ProcessOnG1179" transform="matrix(1.0,0.0,0.0,1.0,10.0,19.23969135284424)"><text id="ProcessOnText1180" fill="#000000" font-size="13" x="71.01419830322266" y="13.325" font-family="微软雅黑" font-weight="normal" font-style="normal" text-decoration="none" family="微软雅黑" text-anchor="middle" size="13">History Order</text></g></g><g id="ProcessOnG1181" transform="matrix(1.0,0.0,0.0,1.0,1016.5,1850.6757888793945)" opacity="1.0"><path id="ProcessOnPath1182" d="M0.0 17.82421112060547C0.0 -5.941403706868489 130.50443267822266 -5.941403706868489 130.50443267822266 17.82421112060547C130.50443267822266 41.58982594807943 0.0 41.58982594807943 0.0 17.82421112060547Z" stroke="#323232" stroke-width="2.0" stroke-dasharray="none" opacity="1.0" fill="#ffffff"/><g id="ProcessOnG1183" transform="matrix(1.0,0.0,0.0,1.0,10.0,9.699211120605469)"><text id="ProcessOnText1184" fill="#000000" font-size="13" x="54.25221633911133" y="13.325" font-family="微软雅黑" font-weight="normal" font-style="normal" text-decoration="none" family="微软雅黑" text-anchor="middle" size="13">Username</text></g></g><g id="ProcessOnG1185" transform="matrix(1.0,0.0,0.0,1.0,1018.2477836608887,1752.2148742675781)" opacity="1.0"><path id="ProcessOnPath1186" d="M0.0 17.82421112060547C0.0 -5.941403706868489 130.50443267822266 -5.941403706868489 130.50443267822266 17.82421112060547C130.50443267822266 41.58982594807943 0.0 41.58982594807943 0.0 17.82421112060547Z" stroke="#323232" stroke-width="2.0" stroke-dasharray="none" opacity="1.0" fill="#ffffff"/><g id="ProcessOnG1187" transform="matrix(1.0,0.0,0.0,1.0,10.0,9.699211120605469)"><text id="ProcessOnText1188" fill="#000000" font-size="13" x="54.25221633911133" y="13.325" font-family="微软雅黑" font-weight="normal" font-style="normal" text-decoration="none" family="微软雅黑" text-anchor="middle" size="13">Status</text></g></g><g id="ProcessOnG1189" transform="matrix(1.0,0.0,0.0,1.0,1016.5,1892.5332260131836)" opacity="1.0"><path id="ProcessOnPath1190" d="M0.0 17.82421112060547C0.0 -5.941403706868489 130.50443267822266 -5.941403706868489 130.50443267822266 17.82421112060547C130.50443267822266 41.58982594807943 0.0 41.58982594807943 0.0 17.82421112060547Z" stroke="#323232" stroke-width="2.0" stroke-dasharray="none" opacity="1.0" fill="#ffffff"/><g id="ProcessOnG1191" transform="matrix(1.0,0.0,0.0,1.0,10.0,9.699211120605469)"><text id="ProcessOnText1192" fill="#000000" font-size="13" x="54.25221633911133" y="13.325" font-family="微软雅黑" font-weight="normal" font-style="normal" text-decoration="underline" family="微软雅黑" text-anchor="middle" size="13">OrderID</text></g></g><g id="ProcessOnG1193" transform="matrix(1.0,0.0,0.0,1.0,1018.2477836608887,1801.863296508789)" opacity="1.0"><path id="ProcessOnPath1194" d="M0.0 17.82421112060547C0.0 -5.941403706868489 130.50443267822266 -5.941403706868489 130.50443267822266 17.82421112060547C130.50443267822266 41.58982594807943 0.0 41.58982594807943 0.0 17.82421112060547Z" stroke="#323232" stroke-width="2.0" stroke-dasharray="none" opacity="1.0" fill="#ffffff"/><g id="ProcessOnG1195" transform="matrix(1.0,0.0,0.0,1.0,10.0,9.699211120605469)"><text id="ProcessOnText1196" fill="#000000" font-size="13" x="54.25221633911133" y="13.325" font-family="微软雅黑" font-weight="normal" font-style="normal" text-decoration="underline" family="微软雅黑" text-anchor="middle" size="13">Train ID</text></g></g><g id="ProcessOnG1197" transform="matrix(1.0,0.0,0.0,1.0,1016.5,2114.5332260131836)" opacity="1.0"><path id="ProcessOnPath1198" d="M0.0 17.82421112060547C0.0 -5.941403706868489 130.50443267822266 -5.941403706868489 130.50443267822266 17.82421112060547C130.50443267822266 41.58982594807943 0.0 41.58982594807943 0.0 17.82421112060547Z" stroke="#323232" stroke-width="2.0" stroke-dasharray="none" opacity="1.0" fill="#ffffff"/><g id="ProcessOnG1199" transform="matrix(1.0,0.0,0.0,1.0,10.0,9.699211120605469)"><text id="ProcessOnText1200" fill="#000000" font-size="13" x="54.25221633911133" y="13.325" font-family="微软雅黑" font-weight="normal" font-style="normal" text-decoration="none" family="微软雅黑" text-anchor="middle" size="13">StartDate</text></g></g><g id="ProcessOnG1201" transform="matrix(1.0,0.0,0.0,1.0,1016.5,1938.5879592895508)" opacity="1.0"><path id="ProcessOnPath1202" d="M0.0 17.82421112060547C0.0 -5.941403706868489 130.50443267822266 -5.941403706868489 130.50443267822266 17.82421112060547C130.50443267822266 41.58982594807943 0.0 41.58982594807943 0.0 17.82421112060547Z" stroke="#323232" stroke-width="2.0" stroke-dasharray="none" opacity="1.0" fill="#ffffff"/><g id="ProcessOnG1203" transform="matrix(1.0,0.0,0.0,1.0,10.0,1.5742111206054688)"><text id="ProcessOnText1204" fill="#000000" font-size="13" x="54.25221633911133" y="13.325" font-family="微软雅黑" font-weight="normal" font-style="normal" text-decoration="none" family="微软雅黑" text-anchor="middle" size="13">StartStation</text><text id="ProcessOnText1205" fill="#000000" font-size="13" x="54.25221633911133" y="29.575" font-family="微软雅黑" font-weight="normal" font-style="normal" text-decoration="none" family="微软雅黑" text-anchor="middle" size="13">OuterID</text></g></g><g id="ProcessOnG1206" transform="matrix(1.0,0.0,0.0,1.0,1018.2477836608887,1982.8848037719727)" opacity="1.0"><path id="ProcessOnPath1207" d="M0.0 17.82421112060547C0.0 -5.941403706868489 130.50443267822266 -5.941403706868489 130.50443267822266 17.82421112060547C130.50443267822266 41.58982594807943 0.0 41.58982594807943 0.0 17.82421112060547Z" stroke="#323232" stroke-width="2.0" stroke-dasharray="none" opacity="1.0" fill="#ffffff"/><g id="ProcessOnG1208" transform="matrix(1.0,0.0,0.0,1.0,10.0,1.5742111206054688)"><text id="ProcessOnText1209" fill="#000000" font-size="13" x="54.25221633911133" y="13.325" font-family="微软雅黑" font-weight="normal" font-style="normal" text-decoration="none" family="微软雅黑" text-anchor="middle" size="13">EndStation</text><text id="ProcessOnText1210" fill="#000000" font-size="13" x="54.25221633911133" y="29.575" font-family="微软雅黑" font-weight="normal" font-style="normal" text-decoration="none" family="微软雅黑" text-anchor="middle" size="13">OuterID</text></g></g><g id="ProcessOnG1211" transform="matrix(1.0,0.0,0.0,1.0,1016.5,2025.8848037719727)" opacity="1.0"><path id="ProcessOnPath1212" d="M0.0 17.82421112060547C0.0 -5.941403706868489 130.50443267822266 -5.941403706868489 130.50443267822266 17.82421112060547C130.50443267822266 41.58982594807943 0.0 41.58982594807943 0.0 17.82421112060547Z" stroke="#323232" stroke-width="2.0" stroke-dasharray="none" opacity="1.0" fill="#ffffff"/><g id="ProcessOnG1213" transform="matrix(1.0,0.0,0.0,1.0,10.0,9.699211120605469)"><text id="ProcessOnText1214" fill="#000000" font-size="13" x="54.25221633911133" y="13.325" font-family="微软雅黑" font-weight="normal" font-style="normal" text-decoration="none" family="微软雅黑" text-anchor="middle" size="13">SeatType</text></g></g><g id="ProcessOnG1215" transform="matrix(1.0,0.0,0.0,1.0,1016.5,2071.6757888793945)" opacity="1.0"><path id="ProcessOnPath1216" d="M0.0 17.82421112060547C0.0 -5.941403706868489 130.50443267822266 -5.941403706868489 130.50443267822266 17.82421112060547C130.50443267822266 41.58982594807943 0.0 41.58982594807943 0.0 17.82421112060547Z" stroke="#323232" stroke-width="2.0" stroke-dasharray="none" opacity="1.0" fill="#ffffff"/><g id="ProcessOnG1217" transform="matrix(1.0,0.0,0.0,1.0,10.0,9.699211120605469)"><text id="ProcessOnText1218" fill="#000000" font-size="13" x="54.25221633911133" y="13.325" font-family="微软雅黑" font-weight="normal" font-style="normal" text-decoration="none" family="微软雅黑" text-anchor="middle" size="13">OrderPrice</text></g></g><g id="ProcessOnG1219" transform="matrix(1.0,0.0,0.0,1.0,668.4620761871338,1928.1816482543945)" opacity="1.0"><path id="ProcessOnPath1220" d="M0.0 0.0L130.50142669677734 0.0L130.50142669677734 35.64842224121094L0.0 35.64842224121094Z" stroke="#323232" stroke-width="2.0" stroke-dasharray="none" opacity="1.0" fill="#ffffff"/><g id="ProcessOnG1221" transform="matrix(1.0,0.0,0.0,1.0,10.0,9.699211120605469)"><text id="ProcessOnText1222" fill="#000000" font-size="13" x="54.25071334838867" y="13.325" font-family="微软雅黑" font-weight="normal" font-style="normal" text-decoration="none" family="微软雅黑" text-anchor="middle" size="13">Orders</text></g></g><g id="ProcessOnG1223"><path id="ProcessOnPath1224" d="M620.1374102825487 1996.6183196474235L668.4620761871338 1946.005859375" stroke="#323232" stroke-width="4.0" stroke-dasharray="none" fill="none" marker-start="url(#ProcessOnMarker1225)"/></g><g id="ProcessOnG1227" transform="matrix(1.0,0.0,0.0,1.0,1892.7350120544434,214.5390853881836)" opacity="1.0"><path id="ProcessOnPath1228" d="M0.0 27.093753814697266L82.01419830322266 0.0L164.0283966064453 27.093753814697266L82.01419830322266 54.18750762939453Z" stroke="#323232" stroke-width="2.0" stroke-dasharray="none" opacity="1.0" fill="#ffffff"/><g id="ProcessOnG1229" transform="matrix(1.0,0.0,0.0,1.0,10.0,19.23969135284424)"><text id="ProcessOnText1230" fill="#000000" font-size="13" x="71.01419830322266" y="13.325" font-family="微软雅黑" font-weight="normal" font-style="normal" text-decoration="none" family="微软雅黑" text-anchor="middle" size="13">GetStationName</text></g></g><g id="ProcessOnG1231"><path id="ProcessOnPath1232" d="M1874.5716840027562 244.99636723558433L1585.858730316162 298.4609146118164" stroke="#323232" stroke-width="4.0" stroke-dasharray="none" fill="none" marker-start="url(#ProcessOnMarker1233)"/></g><g id="ProcessOnG1235" transform="matrix(1.0,0.0,0.0,1.0,1651.1094436645508,964.8395805358887)" opacity="1.0"><path id="ProcessOnPath1236" d="M0.0 17.82421112060547C0.0 -5.941403706868489 130.50443267822266 -5.941403706868489 130.50443267822266 17.82421112060547C130.50443267822266 41.58982594807943 0.0 41.58982594807943 0.0 17.82421112060547Z" stroke="#323232" stroke-width="2.0" stroke-dasharray="none" opacity="1.0" fill="#ffffff"/><g id="ProcessOnG1237" transform="matrix(1.0,0.0,0.0,1.0,10.0,9.699211120605469)"><text id="ProcessOnText1238" fill="#000000" font-size="13" x="54.25221633911133" y="13.325" font-family="微软雅黑" font-weight="normal" font-style="normal" text-decoration="underline" family="微软雅黑" text-anchor="middle" size="13">TrainID</text></g></g><g id="ProcessOnG1239" transform="matrix(1.0,0.0,0.0,1.0,1648.1109466552734,1031.0134201049805)" opacity="1.0"><path id="ProcessOnPath1240" d="M0.0 17.82421112060547C0.0 -5.941403706868489 130.50443267822266 -5.941403706868489 130.50443267822266 17.82421112060547C130.50443267822266 41.58982594807943 0.0 41.58982594807943 0.0 17.82421112060547Z" stroke="#323232" stroke-width="2.0" stroke-dasharray="none" opacity="1.0" fill="#ffffff"/><g id="ProcessOnG1241" transform="matrix(1.0,0.0,0.0,1.0,10.0,9.699211120605469)"><text id="ProcessOnText1242" fill="#000000" font-size="13" x="54.25221633911133" y="13.325" font-family="微软雅黑" font-weight="normal" font-style="normal" text-decoration="underline" family="微软雅黑" text-anchor="middle" size="13">StartDate</text></g></g><g id="ProcessOnG1243" transform="matrix(1.0,0.0,0.0,1.0,1650.3622207641602,1087.5093078613281)" opacity="1.0"><path id="ProcessOnPath1244" d="M0.0 17.82421112060547C0.0 -5.941403706868489 130.50443267822266 -5.941403706868489 130.50443267822266 17.82421112060547C130.50443267822266 41.58982594807943 0.0 41.58982594807943 0.0 17.82421112060547Z" stroke="#323232" stroke-width="2.0" stroke-dasharray="none" opacity="1.0" fill="#ffffff"/><g id="ProcessOnG1245" transform="matrix(1.0,0.0,0.0,1.0,10.0,9.699211120605469)"><text id="ProcessOnText1246" fill="#000000" font-size="13" x="54.25221633911133" y="13.325" font-family="微软雅黑" font-weight="normal" font-style="normal" text-decoration="underline" family="微软雅黑" text-anchor="middle" size="13">InnerStationID</text></g></g><g id="ProcessOnG1247" transform="matrix(1.0,0.0,0.0,1.0,1651.1094436645508,1153.4048080444336)" opacity="1.0"><path id="ProcessOnPath1248" d="M0.0 17.82421112060547C0.0 -5.941403706868489 130.50443267822266 -5.941403706868489 130.50443267822266 17.82421112060547C130.50443267822266 41.58982594807943 0.0 41.58982594807943 0.0 17.82421112060547Z" stroke="#323232" stroke-width="2.0" stroke-dasharray="none" opacity="1.0" fill="#ffffff"/><g id="ProcessOnG1249" transform="matrix(1.0,0.0,0.0,1.0,10.0,9.699211120605469)"><text id="ProcessOnText1250" fill="#000000" font-size="13" x="54.25221633911133" y="13.325" font-family="微软雅黑" font-weight="normal" font-style="normal" text-decoration="none" family="微软雅黑" text-anchor="middle" size="13">(YZ)Count</text></g></g><g id="ProcessOnG1251" transform="matrix(1.0,0.0,0.0,1.0,1909.4969940185547,120.86329650878906)" opacity="1.0"><path id="ProcessOnPath1252" d="M0.0 17.82421112060547C0.0 -5.941403706868489 130.50443267822266 -5.941403706868489 130.50443267822266 17.82421112060547C130.50443267822266 41.58982594807943 0.0 41.58982594807943 0.0 17.82421112060547Z" stroke="#323232" stroke-width="2.0" stroke-dasharray="none" opacity="1.0" fill="#ffffff"/><g id="ProcessOnG1253" transform="matrix(1.0,0.0,0.0,1.0,10.0,9.699211120605469)"><text id="ProcessOnText1254" fill="#000000" font-size="13" x="54.25221633911133" y="13.325" font-family="微软雅黑" font-weight="normal" font-style="normal" text-decoration="underline" family="微软雅黑" text-anchor="middle" size="13">StationName</text></g></g><g id="ProcessOnG1255"><path id="ProcessOnPath1256" d="M1974.749210357666 156.51171875L1974.749210357666 214.5390853881836" stroke="#323232" stroke-width="2.0" stroke-dasharray="none" fill="none"/></g><g id="ProcessOnG1257" transform="matrix(1.0,0.0,0.0,1.0,1879.4941730499268,439.7045440673828)" opacity="1.0"><path id="ProcessOnPath1258" d="M0.0 0.0L130.50142669677734 0.0L130.50142669677734 35.64842224121094L0.0 35.64842224121094Z" stroke="#323232" stroke-width="2.0" stroke-dasharray="none" opacity="1.0" fill="#ffffff"/><g id="ProcessOnG1259" transform="matrix(1.0,0.0,0.0,1.0,10.0,9.699211120605469)"><text id="ProcessOnText1260" fill="#000000" font-size="13" x="54.25071334838867" y="13.325" font-family="微软雅黑" font-weight="normal" font-style="normal" text-decoration="none" family="微软雅黑" text-anchor="middle" size="13">Trains of city</text></g></g><g id="ProcessOnG1261" transform="matrix(1.0,0.0,0.0,1.0,2130.2470703125,450.6597213745117)" opacity="1.0"><path id="ProcessOnPath1262" d="M0.0 17.82421112060547C0.0 -5.941403706868489 130.50443267822266 -5.941403706868489 130.50443267822266 17.82421112060547C130.50443267822266 41.58982594807943 0.0 41.58982594807943 0.0 17.82421112060547Z" stroke="#323232" stroke-width="2.0" stroke-dasharray="none" opacity="1.0" fill="#ffffff"/><g id="ProcessOnG1263" transform="matrix(1.0,0.0,0.0,1.0,10.0,9.699211120605469)"><text id="ProcessOnText1264" fill="#000000" font-size="13" x="54.25221633911133" y="13.325" font-family="微软雅黑" font-weight="normal" font-style="normal" text-decoration="underline" family="微软雅黑" text-anchor="middle" size="13">StationName</text></g></g><g id="ProcessOnG1265" transform="matrix(1.0,0.0,0.0,1.0,2126.2470703125,391.1124496459961)" opacity="1.0"><path id="ProcessOnPath1266" d="M0.0 17.82421112060547C0.0 -5.941403706868489 130.50443267822266 -5.941403706868489 130.50443267822266 17.82421112060547C130.50443267822266 41.58982594807943 0.0 41.58982594807943 0.0 17.82421112060547Z" stroke="#323232" stroke-width="2.0" stroke-dasharray="none" opacity="1.0" fill="#ffffff"/><g id="ProcessOnG1267" transform="matrix(1.0,0.0,0.0,1.0,10.0,9.699211120605469)"><text id="ProcessOnText1268" fill="#000000" font-size="13" x="54.25221633911133" y="13.325" font-family="微软雅黑" font-weight="normal" font-style="normal" text-decoration="underline" family="微软雅黑" text-anchor="middle" size="13">OuterStationID</text></g></g><g id="ProcessOnG1269" transform="matrix(1.0,0.0,0.0,1.0,1461.1109466552734,499.60498809814453)" opacity="1.0"><path id="ProcessOnPath1270" d="M0.0 31.527366638183594L119.31203269958496 0.0L238.62406539916992 31.527366638183594L119.31203269958496 63.05473327636719Z" stroke="#323232" stroke-width="2.0" stroke-dasharray="none" opacity="1.0" fill="#ffffff"/><g id="ProcessOnG1271" transform="matrix(1.0,0.0,0.0,1.0,10.0,23.71764030456543)"><text id="ProcessOnText1272" fill="#000000" font-size="13" x="108.31203269958496" y="13.325" font-family="微软雅黑" font-weight="normal" font-style="normal" text-decoration="none" family="微软雅黑" text-anchor="middle" size="13">OneTrain</text></g></g><g id="ProcessOnG1273"><path id="ProcessOnPath1274" d="M1542.9718170166016 333.86666107177734L1542.742246092832 510.3048006431836" stroke="#323232" stroke-width="4.0" stroke-dasharray="none" fill="none"/></g><g id="ProcessOnG1275" transform="matrix(1.0,0.0,0.0,1.0,2122.8644981384277,617.5424270629883)" opacity="1.0"><path id="ProcessOnPath1276" d="M0.0 17.82421112060547C0.0 -5.941403706868489 130.50443267822266 -5.941403706868489 130.50443267822266 17.82421112060547C130.50443267822266 41.58982594807943 0.0 41.58982594807943 0.0 17.82421112060547Z" stroke="#323232" stroke-width="2.0" stroke-dasharray="none" opacity="1.0" fill="#ffffff"/><g id="ProcessOnG1277" transform="matrix(1.0,0.0,0.0,1.0,10.0,9.699211120605469)"><text id="ProcessOnText1278" fill="#000000" font-size="13" x="54.25221633911133" y="13.325" font-family="微软雅黑" font-weight="normal" font-style="normal" text-decoration="none" family="微软雅黑" text-anchor="middle" size="13">EndStation</text></g></g><g id="ProcessOnG1279" transform="matrix(1.0,0.0,0.0,1.0,2122.8644981384277,571.5424270629883)" opacity="1.0"><path id="ProcessOnPath1280" d="M0.0 17.82421112060547C0.0 -5.941403706868489 130.50443267822266 -5.941403706868489 130.50443267822266 17.82421112060547C130.50443267822266 41.58982594807943 0.0 41.58982594807943 0.0 17.82421112060547Z" stroke="#323232" stroke-width="2.0" stroke-dasharray="none" opacity="1.0" fill="#ffffff"/><g id="ProcessOnG1281" transform="matrix(1.0,0.0,0.0,1.0,10.0,9.699211120605469)"><text id="ProcessOnText1282" fill="#000000" font-size="13" x="54.25221633911133" y="13.325" font-family="微软雅黑" font-weight="normal" font-style="normal" text-decoration="none" family="微软雅黑" text-anchor="middle" size="13">BeginStation</text></g></g><g id="ProcessOnG1283" transform="matrix(1.0,0.0,0.0,1.0,2126.2470703125,851.2148742675781)" opacity="1.0"><path id="ProcessOnPath1284" d="M0.0 17.82421112060547C0.0 -5.941403706868489 130.50443267822266 -5.941403706868489 130.50443267822266 17.82421112060547C130.50443267822266 41.58982594807943 0.0 41.58982594807943 0.0 17.82421112060547Z" stroke="#323232" stroke-width="2.0" stroke-dasharray="none" opacity="1.0" fill="#ffffff"/><g id="ProcessOnG1285" transform="matrix(1.0,0.0,0.0,1.0,10.0,9.699211120605469)"><text id="ProcessOnText1286" fill="#000000" font-size="13" x="54.25221633911133" y="13.325" font-family="微软雅黑" font-weight="normal" font-style="normal" text-decoration="none" family="微软雅黑" text-anchor="middle" size="13">Price</text></g></g><g id="ProcessOnG1287" transform="matrix(1.0,0.0,0.0,1.0,2126.2470703125,802.3789443969727)" opacity="1.0"><path id="ProcessOnPath1288" d="M0.0 17.82421112060547C0.0 -5.941403706868489 130.50443267822266 -5.941403706868489 130.50443267822266 17.82421112060547C130.50443267822266 41.58982594807943 0.0 41.58982594807943 0.0 17.82421112060547Z" stroke="#323232" stroke-width="2.0" stroke-dasharray="none" opacity="1.0" fill="#ffffff"/><g id="ProcessOnG1289" transform="matrix(1.0,0.0,0.0,1.0,10.0,9.699211120605469)"><text id="ProcessOnText1290" fill="#000000" font-size="13" x="54.25221633911133" y="13.325" font-family="微软雅黑" font-weight="normal" font-style="normal" text-decoration="none" family="微软雅黑" text-anchor="middle" size="13">EndTime</text></g></g><g id="ProcessOnG1291" transform="matrix(1.0,0.0,0.0,1.0,2126.2470703125,757.5390853881836)" opacity="1.0"><path id="ProcessOnPath1292" d="M0.0 17.82421112060547C0.0 -5.941403706868489 130.50443267822266 -5.941403706868489 130.50443267822266 17.82421112060547C130.50443267822266 41.58982594807943 0.0 41.58982594807943 0.0 17.82421112060547Z" stroke="#323232" stroke-width="2.0" stroke-dasharray="none" opacity="1.0" fill="#ffffff"/><g id="ProcessOnG1293" transform="matrix(1.0,0.0,0.0,1.0,10.0,9.699211120605469)"><text id="ProcessOnText1294" fill="#000000" font-size="13" x="54.25221633911133" y="13.325" font-family="微软雅黑" font-weight="normal" font-style="normal" text-decoration="none" family="微软雅黑" text-anchor="middle" size="13">BeginTime</text></g></g><g id="ProcessOnG1295" transform="matrix(1.0,0.0,0.0,1.0,2122.8644981384277,706.8359298706055)" opacity="1.0"><path id="ProcessOnPath1296" d="M0.0 17.82421112060547C0.0 -5.941403706868489 130.50443267822266 -5.941403706868489 130.50443267822266 17.82421112060547C130.50443267822266 41.58982594807943 0.0 41.58982594807943 0.0 17.82421112060547Z" stroke="#323232" stroke-width="2.0" stroke-dasharray="none" opacity="1.0" fill="#ffffff"/><g id="ProcessOnG1297" transform="matrix(1.0,0.0,0.0,1.0,10.0,9.699211120605469)"><text id="ProcessOnText1298" fill="#000000" font-size="13" x="54.25221633911133" y="13.325" font-family="微软雅黑" font-weight="normal" font-style="normal" text-decoration="none" family="微软雅黑" text-anchor="middle" size="13">EndStationID</text></g></g><g id="ProcessOnG1299" transform="matrix(1.0,0.0,0.0,1.0,2122.8644981384277,663.5424270629883)" opacity="1.0"><path id="ProcessOnPath1300" d="M0.0 17.82421112060547C0.0 -5.941403706868489 130.50443267822266 -5.941403706868489 130.50443267822266 17.82421112060547C130.50443267822266 41.58982594807943 0.0 41.58982594807943 0.0 17.82421112060547Z" stroke="#323232" stroke-width="2.0" stroke-dasharray="none" opacity="1.0" fill="#ffffff"/><g id="ProcessOnG1301" transform="matrix(1.0,0.0,0.0,1.0,10.0,9.699211120605469)"><text id="ProcessOnText1302" fill="#000000" font-size="13" x="54.25221633911133" y="13.325" font-family="微软雅黑" font-weight="normal" font-style="normal" text-decoration="none" family="微软雅黑" text-anchor="middle" size="13">BeginStationID</text></g></g><g id="ProcessOnG1303"><path id="ProcessOnPath1304" d="M2122.8644981384277 589.3666381835938L1928.800832748413 792.8999843597412" stroke="#323232" stroke-width="2.0" stroke-dasharray="none" fill="none"/></g><g id="ProcessOnG1305"><path id="ProcessOnPath1306" d="M2122.8644981384277 635.3666381835938L1928.800832748413 792.8999843597412" stroke="#323232" stroke-width="2.0" stroke-dasharray="none" fill="none"/></g><g id="ProcessOnG1307"><path id="ProcessOnPath1308" d="M2122.8644981384277 681.3666381835938L1928.800832748413 792.8999843597412" stroke="#323232" stroke-width="2.0" stroke-dasharray="none" fill="none"/></g><g id="ProcessOnG1309"><path id="ProcessOnPath1310" d="M2122.8644981384277 724.6601409912109L1928.800832748413 792.8999843597412" stroke="#323232" stroke-width="2.0" stroke-dasharray="none" fill="none"/></g><g id="ProcessOnG1311"><path id="ProcessOnPath1312" d="M2126.2470703125 775.3632965087891L1928.800832748413 792.8999843597412" stroke="#323232" stroke-width="2.0" stroke-dasharray="none" fill="none"/></g><g id="ProcessOnG1313"><path id="ProcessOnPath1314" d="M2126.2470703125 820.2031555175781L1928.800832748413 792.8999843597412" stroke="#323232" stroke-width="2.0" stroke-dasharray="none" fill="none"/></g><g id="ProcessOnG1315"><path id="ProcessOnPath1316" d="M2126.2470703125 869.0390853881836L1928.800832748413 792.8999843597412" stroke="#323232" stroke-width="2.0" stroke-dasharray="none" fill="none"/></g><g id="ProcessOnG1317" transform="matrix(1.0,0.0,0.0,1.0,1415.1109466552734,404.43663787841797)" opacity="1.0"><path id="ProcessOnPath1318" d="M0.0 0.0L146.50142669677734 0.0L146.50142669677734 42.675811767578125L0.0 42.675811767578125Z" stroke="none" stroke-width="0.0" stroke-dasharray="none" opacity="1.0" fill="none"/><g id="ProcessOnG1319" transform="matrix(1.0,0.0,0.0,1.0,0.0,13.212905883789062)"><text id="ProcessOnText1320" fill="#000000" font-size="13" x="72.25071334838867" y="13.325" font-family="微软雅黑" font-weight="normal" font-style="normal" text-decoration="none" family="微软雅黑" text-anchor="middle" size="13">BeginStion               </text></g></g><g id="ProcessOnG1321" transform="matrix(1.0,0.0,0.0,1.0,1610.8666534423828,404.43663787841797)" opacity="1.0"><path id="ProcessOnPath1322" d="M0.0 0.0L160.0 0.0L160.0 40.0L0.0 40.0Z" stroke="none" stroke-width="0.0" stroke-dasharray="none" opacity="1.0" fill="none"/><g id="ProcessOnG1323" transform="matrix(1.0,0.0,0.0,1.0,0.0,11.875)"><text id="ProcessOnText1324" fill="#000000" font-size="13" x="79.0" y="13.325" font-family="微软雅黑" font-weight="normal" font-style="normal" text-decoration="none" family="微软雅黑" text-anchor="middle" size="13">EndStation</text></g></g><g id="ProcessOnG1325" transform="matrix(1.0,0.0,0.0,1.0,1742.0451259613037,767.0695266723633)" opacity="1.0"><path id="ProcessOnPath1326" d="M0.0 0.0L186.75570678710938 0.0L186.75570678710938 51.66091537475586L0.0 51.66091537475586Z" stroke="#323232" stroke-width="2.0" stroke-dasharray="none" opacity="1.0" fill="#ffffff"/><g id="ProcessOnG1327" transform="matrix(1.0,0.0,0.0,1.0,10.0,17.70545768737793)"><text id="ProcessOnText1328" fill="#000000" font-size="13" x="82.37785339355469" y="13.325" font-family="微软雅黑" font-weight="normal" font-style="normal" text-decoration="none" family="微软雅黑" text-anchor="middle" size="13">OneTrip</text></g></g><g id="ProcessOnG1329"><path id="ProcessOnPath1330" d="M1580.4229793548584 562.6597213745117L1835.4229793548584 767.0695266723633" stroke="#323232" stroke-width="2.0" stroke-dasharray="none" fill="none"/></g><g id="ProcessOnG1331" transform="matrix(1.0,0.0,0.0,1.0,1717.0000076293945,1588.2000732421875)" opacity="1.0"><path id="ProcessOnPath1332" d="M0.0 27.65923309326172L124.36056804656982 0.0L248.72113609313965 27.65923309326172L124.36056804656982 55.31846618652344Z" stroke="#323232" stroke-width="2.0" stroke-dasharray="none" opacity="1.0" fill="#ffffff"/><g id="ProcessOnG1333" transform="matrix(1.0,0.0,0.0,1.0,10.0,19.810825424194334)"><text id="ProcessOnText1334" fill="#000000" font-size="13" x="113.36056804656982" y="13.325" font-family="微软雅黑" font-weight="normal" font-style="normal" text-decoration="none" family="微软雅黑" text-anchor="middle" size="13"> OneTicket</text></g></g><g id="ProcessOnG1335"><path id="ProcessOnPath1336" d="M1835.4229793548584 818.7304420471191L1841.3605756759644 1588.2000732421875" stroke="#323232" stroke-width="2.0" stroke-dasharray="none" fill="none"/></g><g id="ProcessOnG1337" transform="matrix(1.0,0.0,0.0,1.0,1200.2470703125,513.3081436157227)" opacity="1.0"><path id="ProcessOnPath1338" d="M0.0 17.82421112060547C0.0 -5.941403706868489 130.50443267822266 -5.941403706868489 130.50443267822266 17.82421112060547C130.50443267822266 41.58982594807943 0.0 41.58982594807943 0.0 17.82421112060547Z" stroke="#323232" stroke-width="2.0" stroke-dasharray="none" opacity="1.0" fill="#ffffff"/><g id="ProcessOnG1339" transform="matrix(1.0,0.0,0.0,1.0,10.0,9.699211120605469)"><text id="ProcessOnText1340" fill="#000000" font-size="13" x="54.25221633911133" y="13.325" font-family="微软雅黑" font-weight="normal" font-style="normal" text-decoration="none" family="微软雅黑" text-anchor="middle" size="13">TrainID</text></g></g><g id="ProcessOnG1341"><path id="ProcessOnPath1342" d="M1620.4790706634521 333.53334045410156L1620.0549201266651 510.9819092508203" stroke="#323232" stroke-width="3.0" stroke-dasharray="none" fill="none"/></g><g id="ProcessOnG1343" transform="matrix(1.0,0.0,0.0,1.0,599.5896911621094,745.4843521118164)" opacity="1.0"><path id="ProcessOnPath1344" d="M0.0 44.5L134.1230983734131 0.0L268.2461967468262 44.5L134.1230983734131 89.0Z" stroke="#323232" stroke-width="2.0" stroke-dasharray="none" opacity="1.0" fill="#ffffff"/><g id="ProcessOnG1345" transform="matrix(1.0,0.0,0.0,1.0,10.0,36.82)"><text id="ProcessOnText1346" fill="#000000" font-size="13" x="123.12309837341309" y="13.325" font-family="微软雅黑" font-weight="normal" font-style="normal" text-decoration="none" family="微软雅黑" text-anchor="middle" size="13">TransferTrip</text></g></g><g id="ProcessOnG1347"><path id="ProcessOnPath1348" d="M1743.0000076293945 802.7304420471191L821.1245726453706 804.8751171784085" stroke="#323232" stroke-width="2.0" stroke-dasharray="none" fill="none"/></g><g id="ProcessOnG1349"><path id="ProcessOnPath1350" d="M1743.0000076293945 775.7304420471191L817.1245726453706 773.7545024199802" stroke="#323232" stroke-width="2.0" stroke-dasharray="none" fill="none"/></g><g id="ProcessOnG1351" transform="matrix(1.0,0.0,0.0,1.0,1206.7515029907227,724.8392715454102)" opacity="1.0"><path id="ProcessOnPath1352" d="M0.0 0.0L160.0 0.0L160.0 40.0L0.0 40.0Z" stroke="none" stroke-width="0.0" stroke-dasharray="none" opacity="1.0" fill="none"/><g id="ProcessOnG1353" transform="matrix(1.0,0.0,0.0,1.0,0.0,11.875)"><text id="ProcessOnText1354" fill="#000000" font-size="13" x="79.0" y="13.325" font-family="微软雅黑" font-weight="normal" font-style="normal" text-decoration="none" family="微软雅黑" text-anchor="middle" size="13">Trip1</text></g></g><g id="ProcessOnG1355" transform="matrix(1.0,0.0,0.0,1.0,1206.7515029907227,811.2148742675781)" opacity="1.0"><path id="ProcessOnPath1356" d="M0.0 0.0L160.0 0.0L160.0 40.0L0.0 40.0Z" stroke="none" stroke-width="0.0" stroke-dasharray="none" opacity="1.0" fill="none"/><g id="ProcessOnG1357" transform="matrix(1.0,0.0,0.0,1.0,0.0,11.875)"><text id="ProcessOnText1358" fill="#000000" font-size="13" x="79.0" y="13.325" font-family="微软雅黑" font-weight="normal" font-style="normal" text-decoration="none" family="微软雅黑" text-anchor="middle" size="13">Trip2</text></g></g><g id="ProcessOnG1359" transform="matrix(1.0,0.0,0.0,1.0,53.38108444213867,367.1124496459961)" opacity="1.0"><path id="ProcessOnPath1360" d="M0.0 17.82421112060547C0.0 -5.941403706868489 130.50443267822266 -5.941403706868489 130.50443267822266 17.82421112060547C130.50443267822266 41.58982594807943 0.0 41.58982594807943 0.0 17.82421112060547Z" stroke="#323232" stroke-width="2.0" stroke-dasharray="none" opacity="1.0" fill="#ffffff"/><g id="ProcessOnG1361" transform="matrix(1.0,0.0,0.0,1.0,10.0,9.699211120605469)"><text id="ProcessOnText1362" fill="#000000" font-size="13" x="54.25221633911133" y="13.325" font-family="微软雅黑" font-weight="normal" font-style="normal" text-decoration="none" family="微软雅黑" text-anchor="middle" size="13">Train1ID</text></g></g><g id="ProcessOnG1363" transform="matrix(1.0,0.0,0.0,1.0,57.38108444213867,411.5038375854492)" opacity="1.0"><path id="ProcessOnPath1364" d="M0.0 17.82421112060547C0.0 -5.941403706868489 130.50443267822266 -5.941403706868489 130.50443267822266 17.82421112060547C130.50443267822266 41.58982594807943 0.0 41.58982594807943 0.0 17.82421112060547Z" stroke="#323232" stroke-width="2.0" stroke-dasharray="none" opacity="1.0" fill="#ffffff"/><g id="ProcessOnG1365" transform="matrix(1.0,0.0,0.0,1.0,10.0,9.699211120605469)"><text id="ProcessOnText1366" fill="#000000" font-size="13" x="54.25221633911133" y="13.325" font-family="微软雅黑" font-weight="normal" font-style="normal" text-decoration="none" family="微软雅黑" text-anchor="middle" size="13">BeginStation</text></g></g><g id="ProcessOnG1367" transform="matrix(1.0,0.0,0.0,1.0,57.38108444213867,460.5038375854492)" opacity="1.0"><path id="ProcessOnPath1368" d="M0.0 17.82421112060547C0.0 -5.941403706868489 130.50443267822266 -5.941403706868489 130.50443267822266 17.82421112060547C130.50443267822266 41.58982594807943 0.0 41.58982594807943 0.0 17.82421112060547Z" stroke="#323232" stroke-width="2.0" stroke-dasharray="none" opacity="1.0" fill="#ffffff"/><g id="ProcessOnG1369" transform="matrix(1.0,0.0,0.0,1.0,10.0,9.699211120605469)"><text id="ProcessOnText1370" fill="#000000" font-size="13" x="54.25221633911133" y="13.325" font-family="微软雅黑" font-weight="normal" font-style="normal" text-decoration="none" family="微软雅黑" text-anchor="middle" size="13">Train1EndStation</text></g></g><g id="ProcessOnG1371" transform="matrix(1.0,0.0,0.0,1.0,57.38108444213867,513.3081436157227)" opacity="1.0"><path id="ProcessOnPath1372" d="M0.0 17.82421112060547C0.0 -5.941403706868489 130.50443267822266 -5.941403706868489 130.50443267822266 17.82421112060547C130.50443267822266 41.58982594807943 0.0 41.58982594807943 0.0 17.82421112060547Z" stroke="#323232" stroke-width="2.0" stroke-dasharray="none" opacity="1.0" fill="#ffffff"/><g id="ProcessOnG1373" transform="matrix(1.0,0.0,0.0,1.0,10.0,9.699211120605469)"><text id="ProcessOnText1374" fill="#000000" font-size="13" x="54.25221633911133" y="13.325" font-family="微软雅黑" font-weight="normal" font-style="normal" text-decoration="none" family="微软雅黑" text-anchor="middle" size="13">BeginTime</text></g></g><g id="ProcessOnG1375" transform="matrix(1.0,0.0,0.0,1.0,61.38108444213867,609.1908493041992)" opacity="1.0"><path id="ProcessOnPath1376" d="M0.0 17.82421112060547C0.0 -5.941403706868489 130.50443267822266 -5.941403706868489 130.50443267822266 17.82421112060547C130.50443267822266 41.58982594807943 0.0 41.58982594807943 0.0 17.82421112060547Z" stroke="#323232" stroke-width="2.0" stroke-dasharray="none" opacity="1.0" fill="#ffffff"/><g id="ProcessOnG1377" transform="matrix(1.0,0.0,0.0,1.0,10.0,9.699211120605469)"><text id="ProcessOnText1378" fill="#000000" font-size="13" x="54.25221633911133" y="13.325" font-family="微软雅黑" font-weight="normal" font-style="normal" text-decoration="none" family="微软雅黑" text-anchor="middle" size="13">Train1TicketPrice</text></g></g><g id="ProcessOnG1379" transform="matrix(1.0,0.0,0.0,1.0,57.38108444213867,560.5038375854492)" opacity="1.0"><path id="ProcessOnPath1380" d="M0.0 17.82421112060547C0.0 -5.941403706868489 130.50443267822266 -5.941403706868489 130.50443267822266 17.82421112060547C130.50443267822266 41.58982594807943 0.0 41.58982594807943 0.0 17.82421112060547Z" stroke="#323232" stroke-width="2.0" stroke-dasharray="none" opacity="1.0" fill="#ffffff"/><g id="ProcessOnG1381" transform="matrix(1.0,0.0,0.0,1.0,10.0,9.699211120605469)"><text id="ProcessOnText1382" fill="#000000" font-size="13" x="54.25221633911133" y="13.325" font-family="微软雅黑" font-weight="normal" font-style="normal" text-decoration="none" family="微软雅黑" text-anchor="middle" size="13">Train1EndTime</text></g></g><g id="ProcessOnG1383" transform="matrix(1.0,0.0,0.0,1.0,57.38108444213867,657.9657211303711)" opacity="1.0"><path id="ProcessOnPath1384" d="M0.0 17.82421112060547C0.0 -5.941403706868489 130.50443267822266 -5.941403706868489 130.50443267822266 17.82421112060547C130.50443267822266 41.58982594807943 0.0 41.58982594807943 0.0 17.82421112060547Z" stroke="#323232" stroke-width="2.0" stroke-dasharray="none" opacity="1.0" fill="#ffffff"/><g id="ProcessOnG1385" transform="matrix(1.0,0.0,0.0,1.0,10.0,9.699211120605469)"><text id="ProcessOnText1386" fill="#000000" font-size="13" x="54.25221633911133" y="13.325" font-family="微软雅黑" font-weight="normal" font-style="normal" text-decoration="none" family="微软雅黑" text-anchor="middle" size="13">Train1SeatType</text></g></g><g id="ProcessOnG1387" transform="matrix(1.0,0.0,0.0,1.0,57.38108444213867,767.0695266723633)" opacity="1.0"><path id="ProcessOnPath1388" d="M0.0 17.82421112060547C0.0 -5.941403706868489 130.50443267822266 -5.941403706868489 130.50443267822266 17.82421112060547C130.50443267822266 41.58982594807943 0.0 41.58982594807943 0.0 17.82421112060547Z" stroke="#323232" stroke-width="2.0" stroke-dasharray="none" opacity="1.0" fill="#ffffff"/><g id="ProcessOnG1389" transform="matrix(1.0,0.0,0.0,1.0,10.0,9.699211120605469)"><text id="ProcessOnText1390" fill="#000000" font-size="13" x="54.25221633911133" y="13.325" font-family="微软雅黑" font-weight="normal" font-style="normal" text-decoration="none" family="微软雅黑" text-anchor="middle" size="13">Train2TrainID</text></g></g><g id="ProcessOnG1391" transform="matrix(1.0,0.0,0.0,1.0,57.38108444213867,815.4609146118164)" opacity="1.0"><path id="ProcessOnPath1392" d="M0.0 17.202877044677734C0.0 -5.734292348225911 138.50443267822266 -5.734292348225911 138.50443267822266 17.202877044677734C138.50443267822266 40.14004643758138 0.0 40.14004643758138 0.0 17.202877044677734Z" stroke="#323232" stroke-width="2.0" stroke-dasharray="none" opacity="1.0" fill="#ffffff"/><g id="ProcessOnG1393" transform="matrix(1.0,0.0,0.0,1.0,10.0,9.077877044677734)"><text id="ProcessOnText1394" fill="#000000" font-size="13" x="58.25221633911133" y="13.325" font-family="微软雅黑" font-weight="normal" font-style="normal" text-decoration="none" family="微软雅黑" text-anchor="middle" size="13">Train2BeginStation</text></g></g><g id="ProcessOnG1395" transform="matrix(1.0,0.0,0.0,1.0,57.38108444213867,861.6618423461914)" opacity="1.0"><path id="ProcessOnPath1396" d="M0.0 17.82421112060547C0.0 -5.941403706868489 130.50443267822266 -5.941403706868489 130.50443267822266 17.82421112060547C130.50443267822266 41.58982594807943 0.0 41.58982594807943 0.0 17.82421112060547Z" stroke="#323232" stroke-width="2.0" stroke-dasharray="none" opacity="1.0" fill="#ffffff"/><g id="ProcessOnG1397" transform="matrix(1.0,0.0,0.0,1.0,10.0,9.699211120605469)"><text id="ProcessOnText1398" fill="#000000" font-size="13" x="54.25221633911133" y="13.325" font-family="微软雅黑" font-weight="normal" font-style="normal" text-decoration="none" family="微软雅黑" text-anchor="middle" size="13">EndStation</text></g></g><g id="ProcessOnG1399" transform="matrix(1.0,0.0,0.0,1.0,57.38108444213867,911.4484710693359)" opacity="1.0"><path id="ProcessOnPath1400" d="M0.0 17.82421112060547C0.0 -5.941403706868489 130.50443267822266 -5.941403706868489 130.50443267822266 17.82421112060547C130.50443267822266 41.58982594807943 0.0 41.58982594807943 0.0 17.82421112060547Z" stroke="#323232" stroke-width="2.0" stroke-dasharray="none" opacity="1.0" fill="#ffffff"/><g id="ProcessOnG1401" transform="matrix(1.0,0.0,0.0,1.0,10.0,9.699211120605469)"><text id="ProcessOnText1402" fill="#000000" font-size="13" x="54.25221633911133" y="13.325" font-family="微软雅黑" font-weight="normal" font-style="normal" text-decoration="none" family="微软雅黑" text-anchor="middle" size="13">Train2BeginTime</text></g></g><g id="ProcessOnG1403" transform="matrix(1.0,0.0,0.0,1.0,57.38108444213867,1008.0573196411133)" opacity="1.0"><path id="ProcessOnPath1404" d="M0.0 17.82421112060547C0.0 -5.941403706868489 130.50443267822266 -5.941403706868489 130.50443267822266 17.82421112060547C130.50443267822266 41.58982594807943 0.0 41.58982594807943 0.0 17.82421112060547Z" stroke="#323232" stroke-width="2.0" stroke-dasharray="none" opacity="1.0" fill="#ffffff"/><g id="ProcessOnG1405" transform="matrix(1.0,0.0,0.0,1.0,10.0,9.699211120605469)"><text id="ProcessOnText1406" fill="#000000" font-size="13" x="54.25221633911133" y="13.325" font-family="微软雅黑" font-weight="normal" font-style="normal" text-decoration="none" family="微软雅黑" text-anchor="middle" size="13">Train2TicketPrice</text></g></g><g id="ProcessOnG1407" transform="matrix(1.0,0.0,0.0,1.0,57.38108444213867,960.5573425292969)" opacity="1.0"><path id="ProcessOnPath1408" d="M0.0 17.82421112060547C0.0 -5.941403706868489 130.50443267822266 -5.941403706868489 130.50443267822266 17.82421112060547C130.50443267822266 41.58982594807943 0.0 41.58982594807943 0.0 17.82421112060547Z" stroke="#323232" stroke-width="2.0" stroke-dasharray="none" opacity="1.0" fill="#ffffff"/><g id="ProcessOnG1409" transform="matrix(1.0,0.0,0.0,1.0,10.0,9.699211120605469)"><text id="ProcessOnText1410" fill="#000000" font-size="13" x="54.25221633911133" y="13.325" font-family="微软雅黑" font-weight="normal" font-style="normal" text-decoration="none" family="微软雅黑" text-anchor="middle" size="13">EndTime</text></g></g><g id="ProcessOnG1411" transform="matrix(1.0,0.0,0.0,1.0,57.38108444213867,1059.4609146118164)" opacity="1.0"><path id="ProcessOnPath1412" d="M0.0 17.82421112060547C0.0 -5.941403706868489 130.50443267822266 -5.941403706868489 130.50443267822266 17.82421112060547C130.50443267822266 41.58982594807943 0.0 41.58982594807943 0.0 17.82421112060547Z" stroke="#323232" stroke-width="2.0" stroke-dasharray="none" opacity="1.0" fill="#ffffff"/><g id="ProcessOnG1413" transform="matrix(1.0,0.0,0.0,1.0,10.0,9.699211120605469)"><text id="ProcessOnText1414" fill="#000000" font-size="13" x="54.25221633911133" y="13.325" font-family="微软雅黑" font-weight="normal" font-style="normal" text-decoration="none" family="微软雅黑" text-anchor="middle" size="13">Train2SeatType</text></g></g><g id="ProcessOnG1415" transform="matrix(1.0,0.0,0.0,1.0,2130.2470703125,1450.351577758789)" opacity="1.0"><path id="ProcessOnPath1416" d="M0.0 17.82421112060547C0.0 -5.941403706868489 130.50443267822266 -5.941403706868489 130.50443267822266 17.82421112060547C130.50443267822266 41.58982594807943 0.0 41.58982594807943 0.0 17.82421112060547Z" stroke="#323232" stroke-width="2.0" stroke-dasharray="none" opacity="1.0" fill="#ffffff"/><g id="ProcessOnG1417" transform="matrix(1.0,0.0,0.0,1.0,10.0,9.699211120605469)"><text id="ProcessOnText1418" fill="#000000" font-size="13" x="54.25221633911133" y="13.325" font-family="微软雅黑" font-weight="normal" font-style="normal" text-decoration="underline" family="微软雅黑" text-anchor="middle" size="13">TrainID</text></g></g><g id="ProcessOnG1419" transform="matrix(1.0,0.0,0.0,1.0,2130.2470703125,1491.357437133789)" opacity="1.0"><path id="ProcessOnPath1420" d="M0.0 17.82421112060547C0.0 -5.941403706868489 130.50443267822266 -5.941403706868489 130.50443267822266 17.82421112060547C130.50443267822266 41.58982594807943 0.0 41.58982594807943 0.0 17.82421112060547Z" stroke="#323232" stroke-width="2.0" stroke-dasharray="none" opacity="1.0" fill="#ffffff"/><g id="ProcessOnG1421" transform="matrix(1.0,0.0,0.0,1.0,10.0,9.699211120605469)"><text id="ProcessOnText1422" fill="#000000" font-size="13" x="54.25221633911133" y="13.325" font-family="微软雅黑" font-weight="normal" font-style="normal" text-decoration="none" family="微软雅黑" text-anchor="middle" size="13">BeginStation</text></g></g><g id="ProcessOnG1423" transform="matrix(1.0,0.0,0.0,1.0,2130.2470703125,1542.357437133789)" opacity="1.0"><path id="ProcessOnPath1424" d="M0.0 17.82421112060547C0.0 -5.941403706868489 130.50443267822266 -5.941403706868489 130.50443267822266 17.82421112060547C130.50443267822266 41.58982594807943 0.0 41.58982594807943 0.0 17.82421112060547Z" stroke="#323232" stroke-width="2.0" stroke-dasharray="none" opacity="1.0" fill="#ffffff"/><g id="ProcessOnG1425" transform="matrix(1.0,0.0,0.0,1.0,10.0,9.699211120605469)"><text id="ProcessOnText1426" fill="#000000" font-size="13" x="54.25221633911133" y="13.325" font-family="微软雅黑" font-weight="normal" font-style="normal" text-decoration="none" family="微软雅黑" text-anchor="middle" size="13">EndStation</text></g></g><g id="ProcessOnG1427" transform="matrix(1.0,0.0,0.0,1.0,2130.2470703125,1593.3449935913086)" opacity="1.0"><path id="ProcessOnPath1428" d="M0.0 17.82421112060547C0.0 -5.941403706868489 130.50443267822266 -5.941403706868489 130.50443267822266 17.82421112060547C130.50443267822266 41.58982594807943 0.0 41.58982594807943 0.0 17.82421112060547Z" stroke="#323232" stroke-width="2.0" stroke-dasharray="none" opacity="1.0" fill="#ffffff"/><g id="ProcessOnG1429" transform="matrix(1.0,0.0,0.0,1.0,10.0,9.699211120605469)"><text id="ProcessOnText1430" fill="#000000" font-size="13" x="54.25221633911133" y="13.325" font-family="微软雅黑" font-weight="normal" font-style="normal" text-decoration="none" family="微软雅黑" text-anchor="middle" size="13">BeginTime</text></g></g><g id="ProcessOnG1431" transform="matrix(1.0,0.0,0.0,1.0,2130.2470703125,1691.5910339355469)" opacity="1.0"><path id="ProcessOnPath1432" d="M0.0 17.82421112060547C0.0 -5.941403706868489 130.50443267822266 -5.941403706868489 130.50443267822266 17.82421112060547C130.50443267822266 41.58982594807943 0.0 41.58982594807943 0.0 17.82421112060547Z" stroke="#323232" stroke-width="2.0" stroke-dasharray="none" opacity="1.0" fill="#ffffff"/><g id="ProcessOnG1433" transform="matrix(1.0,0.0,0.0,1.0,10.0,9.699211120605469)"><text id="ProcessOnText1434" fill="#000000" font-size="13" x="54.25221633911133" y="13.325" font-family="微软雅黑" font-weight="normal" font-style="normal" text-decoration="none" family="微软雅黑" text-anchor="middle" size="13">TicketPrice</text></g></g><g id="ProcessOnG1435" transform="matrix(1.0,0.0,0.0,1.0,2130.2470703125,1642.357437133789)" opacity="1.0"><path id="ProcessOnPath1436" d="M0.0 17.82421112060547C0.0 -5.941403706868489 130.50443267822266 -5.941403706868489 130.50443267822266 17.82421112060547C130.50443267822266 41.58982594807943 0.0 41.58982594807943 0.0 17.82421112060547Z" stroke="#323232" stroke-width="2.0" stroke-dasharray="none" opacity="1.0" fill="#ffffff"/><g id="ProcessOnG1437" transform="matrix(1.0,0.0,0.0,1.0,10.0,9.699211120605469)"><text id="ProcessOnText1438" fill="#000000" font-size="13" x="54.25221633911133" y="13.325" font-family="微软雅黑" font-weight="normal" font-style="normal" text-decoration="none" family="微软雅黑" text-anchor="middle" size="13">EndTime</text></g></g><g id="ProcessOnG1439" transform="matrix(1.0,0.0,0.0,1.0,2130.2470703125,1741.357437133789)" opacity="1.0"><path id="ProcessOnPath1440" d="M0.0 17.82421112060547C0.0 -5.941403706868489 130.50443267822266 -5.941403706868489 130.50443267822266 17.82421112060547C130.50443267822266 41.58982594807943 0.0 41.58982594807943 0.0 17.82421112060547Z" stroke="#323232" stroke-width="2.0" stroke-dasharray="none" opacity="1.0" fill="#ffffff"/><g id="ProcessOnG1441" transform="matrix(1.0,0.0,0.0,1.0,10.0,9.699211120605469)"><text id="ProcessOnText1442" fill="#000000" font-size="13" x="54.25221633911133" y="13.325" font-family="微软雅黑" font-weight="normal" font-style="normal" text-decoration="none" family="微软雅黑" text-anchor="middle" size="13">SeatType</text></g></g><g id="ProcessOnG1443"><path id="ProcessOnPath1444" d="M2130.2470703125 1468.1757888793945L1965.7211437225342 1615.8593063354492" stroke="#323232" stroke-width="2.0" stroke-dasharray="none" fill="none"/></g><g id="ProcessOnG1445"><path id="ProcessOnPath1446" d="M2130.2470703125 1509.1816482543945L1965.7211437225342 1615.8593063354492" stroke="#323232" stroke-width="2.0" stroke-dasharray="none" fill="none"/></g><g id="ProcessOnG1447"><path id="ProcessOnPath1448" d="M2130.2470703125 1560.1816482543945L1965.7211437225342 1615.8593063354492" stroke="#323232" stroke-width="2.0" stroke-dasharray="none" fill="none"/></g><g id="ProcessOnG1449"><path id="ProcessOnPath1450" d="M2130.2470703125 1611.169204711914L1965.7211437225342 1615.8593063354492" stroke="#323232" stroke-width="2.0" stroke-dasharray="none" fill="none"/></g><g id="ProcessOnG1451"><path id="ProcessOnPath1452" d="M2130.2470703125 1660.1816482543945L1965.7211437225342 1615.8593063354492" stroke="#323232" stroke-width="2.0" stroke-dasharray="none" fill="none"/></g><g id="ProcessOnG1453"><path id="ProcessOnPath1454" d="M2130.2470703125 1709.4152450561523L1965.7211437225342 1615.8593063354492" stroke="#323232" stroke-width="2.0" stroke-dasharray="none" fill="none"/></g><g id="ProcessOnG1455"><path id="ProcessOnPath1456" d="M2130.2470703125 1759.1816482543945L1965.7211437225342 1615.8593063354492" stroke="#323232" stroke-width="2.0" stroke-dasharray="none" fill="none"/></g><g id="ProcessOnG1457"><path id="ProcessOnPath1458" d="M733.7127895355225 834.4843521118164L1274.736915588379 1095.6201705932617" stroke="#323232" stroke-width="2.0" stroke-dasharray="none" fill="none"/></g><g id="ProcessOnG1459"><path id="ProcessOnPath1460" d="M183.88551712036133 384.93666076660156L606.2463645935059 786.9843521118164" stroke="#323232" stroke-width="2.0" stroke-dasharray="none" fill="none"/></g><g id="ProcessOnG1461"><path id="ProcessOnPath1462" d="M187.88551712036133 429.3280487060547L606.2463645935059 786.9843521118164" stroke="#323232" stroke-width="2.0" stroke-dasharray="none" fill="none"/></g><g id="ProcessOnG1463"><path id="ProcessOnPath1464" d="M187.88551712036133 1077.2851257324219L606.2463645935059 786.9843521118164" stroke="#323232" stroke-width="2.0" stroke-dasharray="none" fill="none"/></g><g id="ProcessOnG1465"><path id="ProcessOnPath1466" d="M187.88551712036133 1025.8815307617188L606.2463645935059 786.9843521118164" stroke="#323232" stroke-width="2.0" stroke-dasharray="none" fill="none"/></g><g id="ProcessOnG1467"><path id="ProcessOnPath1468" d="M187.88551712036133 929.2726821899414L606.2463645935059 786.9843521118164" stroke="#323232" stroke-width="2.0" stroke-dasharray="none" fill="none"/></g><g id="ProcessOnG1469"><path id="ProcessOnPath1470" d="M187.88551712036133 879.4860534667969L606.2463645935059 786.9843521118164" stroke="#323232" stroke-width="2.0" stroke-dasharray="none" fill="none"/></g><g id="ProcessOnG1471"><path id="ProcessOnPath1472" d="M195.88551712036133 832.6637916564941L606.2463645935059 786.9843521118164" stroke="#323232" stroke-width="2.0" stroke-dasharray="none" fill="none"/></g><g id="ProcessOnG1473"><path id="ProcessOnPath1474" d="M187.88551712036133 784.8937377929688L606.2463645935059 786.9843521118164" stroke="#323232" stroke-width="2.0" stroke-dasharray="none" fill="none"/></g><g id="ProcessOnG1475"><path id="ProcessOnPath1476" d="M187.88551712036133 675.7899322509766L606.2463645935059 786.9843521118164" stroke="#323232" stroke-width="2.0" stroke-dasharray="none" fill="none"/></g><g id="ProcessOnG1477"><path id="ProcessOnPath1478" d="M191.88551712036133 627.0150604248047L606.2463645935059 786.9843521118164" stroke="#323232" stroke-width="2.0" stroke-dasharray="none" fill="none"/></g><g id="ProcessOnG1479"><path id="ProcessOnPath1480" d="M187.88551712036133 578.3280487060547L606.2463645935059 786.9843521118164" stroke="#323232" stroke-width="2.0" stroke-dasharray="none" fill="none"/></g><g id="ProcessOnG1481"><path id="ProcessOnPath1482" d="M187.88551712036133 531.1323547363281L606.2463645935059 786.9843521118164" stroke="#323232" stroke-width="2.0" stroke-dasharray="none" fill="none"/></g><g id="ProcessOnG1483"><path id="ProcessOnPath1484" d="M187.88551712036133 478.3280487060547L606.2463645935059 786.9843521118164" stroke="#323232" stroke-width="2.0" stroke-dasharray="none" fill="none"/></g><g id="ProcessOnG1485"><path id="ProcessOnPath1486" d="M187.88551712036133 978.3815536499023L606.2463645935059 786.9843521118164" stroke="#323232" stroke-width="2.0" stroke-dasharray="none" fill="none"/></g><g id="ProcessOnG1487" transform="matrix(1.0,0.0,0.0,1.0,53.38108444213867,712.5515823364258)" opacity="1.0"><path id="ProcessOnPath1488" d="M0.0 17.82421112060547C0.0 -5.941403706868489 130.50443267822266 -5.941403706868489 130.50443267822266 17.82421112060547C130.50443267822266 41.58982594807943 0.0 41.58982594807943 0.0 17.82421112060547Z" stroke="#323232" stroke-width="2.0" stroke-dasharray="none" opacity="1.0" fill="#ffffff"/><g id="ProcessOnG1489" transform="matrix(1.0,0.0,0.0,1.0,10.0,9.699211120605469)"><text id="ProcessOnText1490" fill="#000000" font-size="13" x="54.25221633911133" y="13.325" font-family="微软雅黑" font-weight="normal" font-style="normal" text-decoration="none" family="微软雅黑" text-anchor="middle" size="13">TransferCity</text></g></g><g id="ProcessOnG1491"><path id="ProcessOnPath1492" d="M183.88551712036133 730.3757934570312L606.2463645935059 786.9843521118164" stroke="#323232" stroke-width="2.0" stroke-dasharray="none" fill="none"/></g><g id="ProcessOnG1493"><path id="ProcessOnPath1494" d="M733.7127895355225 834.4843521118164L1183.6138172149658 1299.3332748413086" stroke="#323232" stroke-width="2.0" stroke-dasharray="none" fill="none"/></g><g id="ProcessOnG1495"><path id="ProcessOnPath1496" d="M926.4907188415527 1199.1757888793945L1130.3510456085205 1321.3391342163086" stroke="#323232" stroke-width="2.0" stroke-dasharray="none" fill="none"/></g><g id="ProcessOnG1497"><path id="ProcessOnPath1498" d="M926.4907188415527 1248.845718383789L1130.3510456085205 1321.3391342163086" stroke="#323232" stroke-width="2.0" stroke-dasharray="none" fill="none"/></g><g id="ProcessOnG1499"><path id="ProcessOnPath1500" d="M930.4907188415527 1294.845718383789L1130.3510456085205 1321.3391342163086" stroke="#323232" stroke-width="2.0" stroke-dasharray="none" fill="none"/></g><g id="ProcessOnG1501"><path id="ProcessOnPath1502" d="M926.4907188415527 1341.845718383789L1130.3510456085205 1321.3391342163086" stroke="#323232" stroke-width="2.0" stroke-dasharray="none" fill="none"/></g><g id="ProcessOnG1503"><path id="ProcessOnPath1504" d="M926.4907188415527 1157.2851257324219L1130.3510456085205 1321.3391342163086" stroke="#323232" stroke-width="2.0" stroke-dasharray="none" fill="none"/></g><g id="ProcessOnG1505"><path id="ProcessOnPath1506" d="M926.4907188415527 1392.845718383789L1130.3510456085205 1321.3391342163086" stroke="#323232" stroke-width="2.0" stroke-dasharray="none" fill="none"/></g><g id="ProcessOnG1507"><path id="ProcessOnPath1508" d="M926.4907188415527 1434.845718383789L1130.3510456085205 1321.3391342163086" stroke="#323232" stroke-width="2.0" stroke-dasharray="none" fill="none"/></g><g id="ProcessOnG1509"><path id="ProcessOnPath1510" d="M926.4907188415527 1475.851577758789L1130.3510456085205 1321.3391342163086" stroke="#323232" stroke-width="2.0" stroke-dasharray="none" fill="none"/></g><g id="ProcessOnG1511"><path id="ProcessOnPath1512" d="M1461.1109466552734 531.1323547363281L1330.7515029907227 531.1323547363281" stroke="#323232" stroke-width="2.0" stroke-dasharray="none" fill="none"/></g><g id="ProcessOnG1513"><path id="ProcessOnPath1514" d="M1699.7350120544434 531.1323547363281L1879.4941730499268 457.5287551879883" stroke="#323232" stroke-width="2.0" stroke-dasharray="none" fill="none"/></g><g id="ProcessOnG1515"><path id="ProcessOnPath1516" d="M2126.2470703125 408.93666076660156L2009.995599746704 457.5287551879883" stroke="#323232" stroke-width="2.0" stroke-dasharray="none" fill="none"/></g><g id="ProcessOnG1517"><path id="ProcessOnPath1518" d="M2130.2470703125 468.4839324951172L2009.995599746704 457.5287551879883" stroke="#323232" stroke-width="2.0" stroke-dasharray="none" fill="none"/></g><g id="ProcessOnG1519" transform="matrix(1.0,0.0,0.0,1.0,607.3810844421387,1588.2000732421875)" opacity="1.0"><path id="ProcessOnPath1520" d="M0.0 34.5L126.33170509338379 0.0L252.66341018676758 34.5L126.33170509338379 69.0Z" stroke="#323232" stroke-width="2.0" stroke-dasharray="none" opacity="1.0" fill="#ffffff"/><g id="ProcessOnG1521" transform="matrix(1.0,0.0,0.0,1.0,10.0,26.72)"><text id="ProcessOnText1522" fill="#000000" font-size="13" x="115.33170509338379" y="13.325" font-family="微软雅黑" font-weight="normal" font-style="normal" text-decoration="none" family="微软雅黑" text-anchor="middle" size="13">BookTickets</text></g></g><g id="ProcessOnG1523"><path id="ProcessOnPath1524" d="M733.7127895355225 1657.2000732421875L733.7127895355225 1928.1816482543945" stroke="#323232" stroke-width="2.0" stroke-dasharray="none" fill="none"/></g><g id="ProcessOnG1525"><path id="ProcessOnPath1526" d="M733.7127895355225 834.4843521118164L733.7127895355225 1588.2000732421875" stroke="#323232" stroke-width="2.0" stroke-dasharray="none" fill="none"/></g><g id="ProcessOnG1527"><path id="ProcessOnPath1528" d="M1651.1094436645508 1171.229019165039L1477.7088451385498 1095.6201705932617" stroke="#323232" stroke-width="2.0" stroke-dasharray="none" fill="none"/></g><g id="ProcessOnG1529"><path id="ProcessOnPath1530" d="M1650.3622207641602 1105.3335189819336L1477.7088451385498 1095.6201705932617" stroke="#323232" stroke-width="2.0" stroke-dasharray="none" fill="none"/></g><g id="ProcessOnG1531"><path id="ProcessOnPath1532" d="M1648.1109466552734 1048.837631225586L1477.7088451385498 1095.6201705932617" stroke="#323232" stroke-width="2.0" stroke-dasharray="none" fill="none"/></g><g id="ProcessOnG1533"><path id="ProcessOnPath1534" d="M1651.1094436645508 982.6637916564941L1477.7088451385498 1095.6201705932617" stroke="#323232" stroke-width="2.0" stroke-dasharray="none" fill="none"/></g><g id="ProcessOnG1535"><path id="ProcessOnPath1536" d="M860.0444946289062 1622.7000732421875L1717.0000076293945 1615.8593063354492" stroke="#323232" stroke-width="2.0" stroke-dasharray="none" fill="none"/></g><g id="ProcessOnG1537"><path id="ProcessOnPath1538" d="M1236.8765888214111 1321.3391342163086L1841.3605756759644 1588.2000732421875" stroke="#323232" stroke-width="2.0" stroke-dasharray="none" fill="none"/></g><g id="ProcessOnG1539"><path id="ProcessOnPath1540" d="M1376.2228803634644 1115.4609146118164L1841.3605756759644 1588.2000732421875" stroke="#323232" stroke-width="2.0" stroke-dasharray="none" fill="none"/></g><g id="ProcessOnG1541" transform="matrix(1.0,0.0,0.0,1.0,2133.514507293701,1395.5424880981445)" opacity="1.0"><path id="ProcessOnPath1542" d="M0.0 17.82421112060547C0.0 -5.941403706868489 130.50443267822266 -5.941403706868489 130.50443267822266 17.82421112060547C130.50443267822266 41.58982594807943 0.0 41.58982594807943 0.0 17.82421112060547Z" stroke="#323232" stroke-width="2.0" stroke-dasharray="none" opacity="1.0" fill="#ffffff"/><g id="ProcessOnG1543" transform="matrix(1.0,0.0,0.0,1.0,10.0,9.699211120605469)"><text id="ProcessOnText1544" fill="#000000" font-size="13" x="54.25221633911133" y="13.325" font-family="微软雅黑" font-weight="normal" font-style="normal" text-decoration="underline" family="微软雅黑" text-anchor="middle" size="13">StartDate</text></g></g><g id="ProcessOnG1545"><path id="ProcessOnPath1546" d="M2133.514507293701 1413.36669921875L1965.7211437225342 1615.8593063354492" stroke="#323232" stroke-width="2.0" stroke-dasharray="none" fill="none"/></g><g id="ProcessOnG1547" transform="matrix(1.0,0.0,0.0,1.0,57.38108444213867,304.5390853881836)" opacity="1.0"><path id="ProcessOnPath1548" d="M0.0 17.82421112060547C0.0 -5.941403706868489 130.50443267822266 -5.941403706868489 130.50443267822266 17.82421112060547C130.50443267822266 41.58982594807943 0.0 41.58982594807943 0.0 17.82421112060547Z" stroke="#323232" stroke-width="2.0" stroke-dasharray="none" opacity="1.0" fill="#ffffff"/><g id="ProcessOnG1549" transform="matrix(1.0,0.0,0.0,1.0,10.0,9.699211120605469)"><text id="ProcessOnText1550" fill="#000000" font-size="13" x="54.25221633911133" y="13.325" font-family="微软雅黑" font-weight="normal" font-style="normal" text-decoration="underline" family="微软雅黑" text-anchor="middle" size="13">StartDate</text></g></g><g id="ProcessOnG1551"><path id="ProcessOnPath1552" d="M187.88551712036133 322.36329650878906L599.5896911621094 789.9843521118164" stroke="#323232" stroke-width="2.0" stroke-dasharray="none" fill="none"/></g></g></g></svg>